<?xml version="1.0" encoding="UTF-8"?>
<svg version="1.1" xmlns="http://www.w3.org/2000/svg" width="512" height="512">
<path d="M0 0 C1.01823853 0.00215515 2.03647705 0.0043103 3.08557129 0.00653076 C17.7097884 0.05623391 32.00304638 0.37042012 46.375 3.3125 C47.37160645 3.50585938 48.36821289 3.69921875 49.39501953 3.8984375 C97.79648057 13.46213524 141.99059771 35.87987765 177.375 70.3125 C178.37877686 71.27760498 178.37877686 71.27760498 179.40283203 72.26220703 C188.33991207 80.87657599 196.74206664 89.58564609 204.10107422 99.59423828 C205.39750666 101.34285682 206.72788718 103.06078803 208.06640625 104.77734375 C215.93067241 114.9920598 222.3161092 125.94975258 228.375 137.3125 C229.03846436 138.55314209 229.03846436 138.55314209 229.71533203 139.81884766 C241.23204842 161.72199262 248.9030584 186.01309889 253.375 210.3125 C253.53581055 211.11316895 253.69662109 211.91383789 253.86230469 212.73876953 C259.3544441 240.81662453 259.10896692 274.30227935 253.375 302.3125 C253.18164062 303.30910645 252.98828125 304.30571289 252.7890625 305.33251953 C244.67028127 346.42132055 227.30084885 383.51549494 201.375 416.3125 C200.56289063 417.35019531 199.75078125 418.38789063 198.9140625 419.45703125 C186.24907313 435.01858759 171.69874403 449.61464417 155.375 461.3125 C154.02974408 462.30180622 152.68470229 463.29140366 151.33984375 464.28125 C120.03306909 487.08129792 84.47487825 502.30078684 46.375 509.3125 C45.57433105 509.47331055 44.77366211 509.63412109 43.94873047 509.79980469 C15.88172956 515.289821 -17.62684244 515.06193715 -45.625 509.3125 C-46.63755859 509.11382324 -47.65011719 508.91514648 -48.69335938 508.71044922 C-89.78600049 500.49315205 -126.72136417 483.05232803 -159.625 457.3125 C-160.16415039 456.89339355 -160.70330078 456.47428711 -161.25878906 456.04248047 C-177.49886305 443.27946125 -192.56962343 428.08823511 -204.625 411.3125 C-205.4887527 410.14261544 -206.35335469 408.9733575 -207.21875 407.8046875 C-222.36207742 387.1786757 -234.4442165 364.56952873 -242.625 340.3125 C-243.03806396 339.08998535 -243.03806396 339.08998535 -243.45947266 337.84277344 C-246.69755506 328.07192323 -249.22985473 318.19031263 -251.375 308.125 C-251.57375732 307.20033936 -251.77251465 306.27567871 -251.97729492 305.32299805 C-255.26999027 289.11638823 -256.00030278 273.1821298 -255.9375 256.6875 C-255.93534485 255.66926147 -255.9331897 254.65102295 -255.93096924 253.60192871 C-255.88126609 238.9777116 -255.56707988 224.68445362 -252.625 210.3125 C-252.33496094 208.81759033 -252.33496094 208.81759033 -252.0390625 207.29248047 C-244.41040781 168.68418872 -228.69757683 132.53083121 -204.625 101.3125 C-203.66013672 100.05953125 -203.66013672 100.05953125 -202.67578125 98.78125 C-188.57295377 80.82715922 -172.21896589 63.63892592 -153.625 50.3125 C-153.08327148 49.920625 -152.54154297 49.52875 -151.98339844 49.125 C-121.06865283 26.84146078 -86.69401468 11.73961685 -49.375 4.0625 C-48.64442383 3.91127686 -47.91384766 3.76005371 -47.16113281 3.60424805 C-31.46684491 0.57387475 -15.9450952 -0.06071045 0 0 Z M-65.625 40.3125 C-66.87796875 40.67988281 -68.1309375 41.04726563 -69.421875 41.42578125 C-125.28104207 58.86678728 -171.99472451 100.25931261 -199.625 151.3125 C-200.00221191 152.00939941 -200.37942383 152.70629883 -200.76806641 153.42431641 C-215.29094615 180.83963556 -224.56519578 213.37992062 -224.86328125 244.46484375 C-224.87302979 245.31429565 -224.88277832 246.16374756 -224.89282227 247.03894043 C-225.06696734 266.15223292 -224.80149107 284.56598259 -220.625 303.3125 C-220.34414551 304.59423096 -220.34414551 304.59423096 -220.05761719 305.90185547 C-218.80417092 311.44494555 -217.30520128 316.88451322 -215.625 322.3125 C-215.26414307 323.4895752 -215.26414307 323.4895752 -214.89599609 324.69042969 C-204.35292309 358.38758262 -185.77871678 388.43938952 -161.21777344 413.67285156 C-159.8011962 415.13111838 -158.40313085 416.60731656 -157.0078125 418.0859375 C-150.44012378 424.91202709 -143.1903129 430.65030728 -135.625 436.3125 C-135.05765137 436.74062988 -134.49030273 437.16875977 -133.90576172 437.60986328 C-86.62710869 473.09274495 -26.67007332 488.04256767 31.8125 480.0625 C79.60386107 472.9549762 123.1280267 451.59024872 157.73535156 417.90527344 C159.19361838 416.4886962 160.66981656 415.09063085 162.1484375 413.6953125 C168.97452709 407.12762378 174.71280728 399.8778129 180.375 392.3125 C180.80312988 391.74515137 181.23125977 391.17780273 181.67236328 390.59326172 C203.19211016 361.91958591 218.11288347 327.86412169 223.375 292.3125 C223.63337646 290.73601685 223.63337646 290.73601685 223.89697266 289.12768555 C225.52524314 278.40183432 225.77300536 267.83138608 225.75 257 C225.74968277 255.61794876 225.74968277 255.61794876 225.74935913 254.20797729 C225.71444701 238.92093462 224.7098073 224.28105187 221.375 209.3125 C221.18776367 208.4580127 221.00052734 207.60352539 220.80761719 206.72314453 C219.55417092 201.18005445 218.05520128 195.74048678 216.375 190.3125 C216.13442871 189.5277832 215.89385742 188.74306641 215.64599609 187.93457031 C204.81463337 153.31600265 185.56656326 123.17042568 160.375 97.3125 C159.47652344 96.3740625 158.57804687 95.435625 157.65234375 94.46875 C100.81779053 36.10299646 11.26716921 17.1323064 -65.625 40.3125 Z " fill="#000000" transform="translate(255.625,-0.3125)"/>
<path d="M0 0 C0.81386673 -0.00832352 1.62773346 -0.01664703 2.46626282 -0.02522278 C5.1452011 -0.04923102 7.82389537 -0.05808423 10.50292969 -0.06469727 C12.37611968 -0.07367156 14.24930897 -0.08279354 16.12249756 -0.09205627 C20.0463637 -0.10852461 23.97014475 -0.11624228 27.89404297 -0.11914062 C32.90187186 -0.12451786 37.90889164 -0.16217997 42.91649246 -0.20788479 C46.785755 -0.23775021 50.65482507 -0.24486626 54.52419281 -0.24586678 C56.36924693 -0.25005134 58.21430256 -0.26241414 60.05924225 -0.28338432 C79.30424466 -0.48469699 79.30424466 -0.48469699 86.67480469 5.30639648 C94.12516285 13.04224375 94.97670458 20.75935827 94.90185547 31.10693359 C94.90214752 32.17109497 94.90243958 33.23525635 94.90274048 34.33166504 C94.90135243 37.83244108 94.88581574 41.33300158 94.87011719 44.83374023 C94.8663852 47.26754134 94.8635391 49.70134395 94.86154175 52.13514709 C94.85391996 58.52857642 94.83428388 64.92191432 94.81213379 71.31530762 C94.79164407 77.8442257 94.78253334 84.37315861 94.77246094 90.90209961 C94.75103669 103.70357082 94.71730484 116.50497878 94.67480469 129.30639648 C95.77945068 129.29036377 96.88409668 129.27433105 98.0222168 129.2578125 C103.28916637 129.32786951 106.57933597 131.0805645 110.67480469 134.30639648 C115.32912062 139.7672014 117.76129572 144.6581171 117.85180664 151.84033203 C117.87105949 153.17773689 117.87105949 153.17773689 117.89070129 154.54216003 C117.89808823 155.49947525 117.90547516 156.45679047 117.91308594 157.44311523 C117.92115768 158.43712845 117.92922943 159.43114166 117.93754578 160.45527649 C117.95136708 162.55919664 117.96209796 164.66313903 117.9699707 166.76708984 C117.98147897 168.9094097 118.00191235 171.05170114 118.03149414 173.19384766 C118.07435086 176.29796737 118.09036608 179.40123567 118.10058594 182.50561523 C118.12684807 183.92640633 118.12684807 183.92640633 118.15364075 185.37590027 C118.12982067 192.76369012 116.52964051 198.90670133 111.70996094 204.64624023 C110.73349609 205.43708008 110.73349609 205.43708008 109.73730469 206.24389648 C109.08890625 206.78916992 108.44050781 207.33444336 107.77246094 207.89624023 C102.06268168 211.73465795 96.81215259 211.60298638 90.13647461 211.59692383 C89.07570206 211.60364105 88.0149295 211.61035828 86.92201233 211.61727905 C83.416385 211.63627168 79.91094901 211.64018399 76.40527344 211.64233398 C73.96535666 211.64876125 71.52544066 211.65548956 69.08552551 211.6625061 C63.97032891 211.67448221 58.85519987 211.6781866 53.73999023 211.67700195 C47.19296512 211.6767988 40.64637426 211.70409604 34.09945202 211.73854637 C29.05933146 211.76081006 24.01931547 211.76483964 18.97915077 211.7637825 C16.56587541 211.76613944 14.15259721 211.77496811 11.73937035 211.79044724 C8.35971255 211.81009459 4.98099201 211.80427312 1.60131836 211.79223633 C0.11337265 211.80909485 0.11337265 211.80909485 -1.40463257 211.82629395 C-8.69120024 211.76051866 -14.00066754 210.16757544 -19.56738281 205.37670898 C-20.10621094 204.73475586 -20.64503906 204.09280273 -21.20019531 203.43139648 C-21.75449219 202.79459961 -22.30878906 202.15780273 -22.87988281 201.50170898 C-26.72954966 195.65437718 -26.63245248 189.69026428 -26.62597656 182.93920898 C-26.63026169 181.94565399 -26.63454681 180.952099 -26.63896179 179.92843628 C-26.64468972 177.83226278 -26.64521672 175.7360694 -26.64086914 173.63989258 C-26.63771268 170.44895159 -26.66117598 167.25894154 -26.68652344 164.06811523 C-26.68879707 162.02514765 -26.68949963 159.98217758 -26.68847656 157.93920898 C-26.70229118 156.52008713 -26.70229118 156.52008713 -26.71638489 155.07229614 C-26.66073986 147.02333549 -25.1327938 140.27992636 -19.32519531 134.30639648 C-13.44858192 129.9888846 -10.88851343 129.30639648 -3.32519531 129.30639648 C-3.32519531 114.12639648 -3.32519531 98.94639648 -3.32519531 83.30639648 C-6.62519531 82.64639648 -9.92519531 81.98639648 -13.32519531 81.30639648 C-20.31728819 77.25300931 -23.54001942 72.85758849 -26.32519531 65.30639648 C-26.96388643 61.63683573 -27.00608965 58.08315566 -26.95410156 54.36499023 C-26.95651352 53.35727066 -26.95892548 52.34955109 -26.96141052 51.31129456 C-26.96043757 49.19609615 -26.94717706 47.08087051 -26.92211914 44.96582031 C-26.88774321 41.74837904 -26.9015084 38.53368048 -26.92089844 35.31616211 C-26.9140003 33.24909326 -26.90432821 31.18203142 -26.89160156 29.11499023 C-26.89656143 28.16474472 -26.9015213 27.21449921 -26.90663147 26.23545837 C-26.77834035 18.87954329 -25.14020334 12.71973618 -20.39550781 6.96655273 C-19.75355469 6.43932617 -19.11160156 5.91209961 -18.45019531 5.36889648 C-17.495 4.55098633 -17.495 4.55098633 -16.52050781 3.71655273 C-11.30900902 0.36895297 -6.04490774 0.00530393 0 0 Z M4.67480469 31.30639648 C4.67480469 38.23639648 4.67480469 45.16639648 4.67480469 52.30639648 C6.51042969 52.38889648 8.34605469 52.47139648 10.23730469 52.55639648 C15.8677796 53.04109539 19.22604161 53.80417874 23.67480469 57.30639648 C26.67427641 62.04746668 27.11119991 66.20279086 27.07885742 71.67919922 C27.08572067 72.49788483 27.09258392 73.31657043 27.09965515 74.1600647 C27.1178854 76.85355201 27.1140911 79.54645474 27.10839844 82.23999023 C27.11296207 84.12036833 27.11826819 86.00074476 27.12428284 87.88111877 C27.13320654 91.81762477 27.13079926 95.75392782 27.12084961 99.69042969 C27.10936126 104.72537713 27.12957313 109.7596231 27.15876675 114.79447842 C27.17714695 118.6765027 27.17683265 122.55835944 27.17112923 126.44041634 C27.17097623 128.29629564 27.17700239 130.15218645 27.1894207 132.00802422 C27.2043634 134.60719188 27.1936302 137.20507081 27.17651367 139.80419922 C27.18618164 140.56441879 27.19584961 141.32463837 27.20581055 142.1078949 C27.13064423 147.58175755 25.77483359 150.77930301 22.67480469 155.30639648 C17.38065899 159.62179255 11.24243835 158.97469781 4.67480469 159.30639648 C4.67480469 166.23639648 4.67480469 173.16639648 4.67480469 180.30639648 C31.73480469 180.30639648 58.79480469 180.30639648 86.67480469 180.30639648 C86.67480469 173.37639648 86.67480469 166.44639648 86.67480469 159.30639648 C84.65355469 159.22389648 82.63230469 159.14139648 80.54980469 159.05639648 C75.1978236 158.63172842 71.6542462 158.18111585 67.67480469 154.30639648 C63.94776154 148.71911122 64.23376334 143.36296414 64.24243164 136.88500977 C64.22714417 135.17194389 64.22714417 135.17194389 64.21154785 133.42427063 C64.18141101 129.65836688 64.17215052 125.89271749 64.16308594 122.12670898 C64.14623983 119.51210687 64.12808969 116.89751287 64.10868835 114.28292847 C64.06507928 108.11015208 64.03649811 101.937402 64.01336497 95.76451862 C63.98362449 88.04401769 63.93373716 80.3236636 63.88378906 72.60327148 C63.79481949 58.83769109 63.7362402 45.07218842 63.67480469 31.30639648 C44.20480469 31.30639648 24.73480469 31.30639648 4.67480469 31.30639648 Z " fill="#000000" transform="translate(212.3251953125,204.693603515625)"/>
<path d="M0 0 C11.29319744 8.36820119 17.95118167 19.89521158 20.27734375 33.6875 C21.33045147 48.77529333 17.58409523 60.49766213 9.08984375 72.875 C-1.06064859 83.02549234 -13.07529627 89.18037815 -27.53515625 89.75390625 C-41.74727758 89.45782039 -54.53463337 84.7517101 -64.72265625 74.6875 C-74.99863192 62.78583286 -78.70770588 49.16173423 -77.72265625 33.6875 C-75.47536392 20.38069818 -68.94438505 9.39735223 -58.4921875 0.8671875 C-40.78845947 -11.6037572 -18.1244822 -11.7500695 0 0 Z M-44.16015625 30.8125 C-46.61246832 35.32475421 -47.14187915 38.57298058 -46.72265625 43.6875 C-44.77143818 49.56345386 -41.80291771 53.2329222 -36.72265625 56.6875 C-31.91029431 58.9890644 -27.79329059 59.08699508 -22.72265625 57.6875 C-17.53276235 54.89294175 -14.2122382 51.51770571 -11.47265625 46.3125 C-9.75467905 40.29957981 -10.58271414 35.83847198 -13.515625 30.48046875 C-16.06581458 26.69232306 -19.60171579 24.46973155 -23.72265625 22.6875 C-32.55146659 21.26107656 -38.70993775 23.82504038 -44.16015625 30.8125 Z " fill="#000000" transform="translate(286.72265625,104.3125)"/>
</svg>
