<?xml version="1.0" encoding="UTF-8"?>
<svg version="1.1" xmlns="http://www.w3.org/2000/svg" width="360" height="395">
<path d="M0 0 C2.39614126 -0.05425226 4.79103853 -0.09379027 7.1875 -0.125 C7.86103516 -0.14175781 8.53457031 -0.15851562 9.22851562 -0.17578125 C13.28807807 -0.21538674 16.34998815 0.19979998 20 2 C20 2.99 20 3.98 20 5 C21.65 5 23.3 5 25 5 C25 5.66 25 6.32 25 7 C25.66 7 26.32 7 27 7 C27 7.99 27 8.98 27 10 C28.65 10 30.3 10 32 10 C32 10.66 32 11.32 32 12 C33.65 12 35.3 12 37 12 C37.99 14.475 37.99 14.475 39 17 C40.65 17 42.3 17 44 17 C44 17.66 44 18.32 44 19 C45.65 19.33 47.3 19.66 49 20 C49 20.66 49 21.32 49 22 C49.99 22 50.98 22 52 22 C52 22.66 52 23.32 52 24 C53.65 24.33 55.3 24.66 57 25 C57 25.66 57 26.32 57 27 C58.32 27 59.64 27 61 27 C61 27.66 61 28.32 61 29 C61.99 29 62.98 29 64 29 C64 29.99 64 30.98 64 32 C65.65 32 67.3 32 69 32 C69 32.66 69 33.32 69 34 C70.65 34.33 72.3 34.66 74 35 C74 35.66 74 36.32 74 37 C76.31 37.66 78.62 38.32 81 39 C81 39.66 81 40.32 81 41 C82.65 41.33 84.3 41.66 86 42 C86 42.66 86 43.32 86 44 C86.66 44 87.32 44 88 44 C88 44.66 88 45.32 88 46 C89.65 46 91.3 46 93 46 C93 46.99 93 47.98 93 49 C94.65 49 96.3 49 98 49 C98 49.66 98 50.32 98 51 C98.99 51 99.98 51 101 51 C101 51.99 101 52.98 101 54 C102.11375 54.185625 102.11375 54.185625 103.25 54.375 C105.80141485 54.95486701 107.7267573 55.73708739 110 57 C110 57.66 110 58.32 110 59 C110.99 59 111.98 59 113 59 C113 59.66 113 60.32 113 61 C114.65 61 116.3 61 118 61 C118 61.66 118 62.32 118 63 C118.78375 63.309375 119.5675 63.61875 120.375 63.9375 C123 65 123 65 125 66 C125 66.66 125 67.32 125 68 C126.65 68 128.3 68 130 68 C130 68.99 130 69.98 130 71 C130.66 71 131.32 71 132 71 C132 71.66 132 72.32 132 73 C133.65 73 135.3 73 137 73 C137 73.99 137 74.98 137 76 C138.65 76 140.3 76 142 76 C142 76.66 142 77.32 142 78 C142.99 78 143.98 78 145 78 C145 78.99 145 79.98 145 81 C145.66 81 146.32 81 147 81 C147 81.99 147 82.98 147 84 C147.66 84 148.32 84 149 84 C150.18061592 91.44694785 150.1412939 98.83014764 150.12939453 106.35473633 C150.13075138 107.79930668 150.1325329 109.24387669 150.13470459 110.68844604 C150.13924314 114.59095054 150.13750468 118.49342846 150.1343255 122.39593339 C150.1317858 126.48512227 150.1341437 130.57430895 150.13571167 134.66349792 C150.13752763 141.52363492 150.13514101 148.38376113 150.13037109 155.24389648 C150.12491872 163.17722046 150.12670049 171.11051877 150.1321975 179.04384214 C150.13673202 185.86098126 150.13737784 192.67811265 150.13475883 199.49525279 C150.13319933 203.56468323 150.13299361 207.6341016 150.13629532 211.70353127 C150.13917931 215.52437039 150.1371886 219.34517629 150.13140106 223.16601181 C150.13007677 224.56929532 150.13046199 225.97258162 150.13266373 227.37586403 C150.13538787 229.28803534 150.13136935 231.20021276 150.12698364 233.11238098 C150.12660662 234.1832536 150.12622959 235.25412622 150.12584114 236.35744953 C150 239 150 239 149 242 C148.34 242 147.68 242 147 242 C146.67 243.65 146.34 245.3 146 247 C144.68 247 143.36 247 142 247 C142 247.99 142 248.98 142 250 C140.35 250 138.7 250 137 250 C137 250.66 137 251.32 137 252 C134.35261084 253.4606285 133.10551666 254 130 254 C130 254.99 130 255.98 130 257 C128.35 257 126.7 257 125 257 C125 257.66 125 258.32 125 259 C123.35 259 121.7 259 120 259 C120 259.99 120 260.98 120 262 C119.34 262 118.68 262 118 262 C118 262.66 118 263.32 118 264 C117.01 264 116.02 264 115 264 C115 264.66 115 265.32 115 266 C113.35 266.33 111.7 266.66 110 267 C110 267.66 110 268.32 110 269 C108.68 269 107.36 269 106 269 C105.67 269.99 105.34 270.98 105 272 C103.68 272 102.36 272 101 272 C101 272.66 101 273.32 101 274 C100.01 274 99.02 274 98 274 C98 274.66 98 275.32 98 276 C96.35 276.33 94.7 276.66 93 277 C93 277.66 93 278.32 93 279 C91.35 279 89.7 279 88 279 C88 279.66 88 280.32 88 281 C87.34 281 86.68 281 86 281 C85.67 281.99 85.34 282.98 85 284 C83.68 284 82.36 284 81 284 C81 284.66 81 285.32 81 286 C79.35 286 77.7 286 76 286 C76 286.99 76 287.98 76 289 C73 291 73 291 69 291 C69 291.99 69 292.98 69 294 C68.01 294 67.02 294 66 294 C66 294.66 66 295.32 66 296 C64.35 296 62.7 296 61 296 C61 296.99 61 297.98 61 299 C58 301 58 301 54 301 C54 301.66 54 302.32 54 303 C52.35 303 50.7 303 49 303 C49 303.99 49 304.98 49 306 C47.35 306 45.7 306 44 306 C44 306.66 44 307.32 44 308 C43.34 308 42.68 308 42 308 C41.67 308.99 41.34 309.98 41 311 C39.68 311 38.36 311 37 311 C37 311.66 37 312.32 37 313 C36.01 313 35.02 313 34 313 C34 313.66 34 314.32 34 315 C32.68 315.33 31.36 315.66 30 316 C30 316.66 30 317.32 30 318 C28.35 318 26.7 318 25 318 C24.67 318.99 24.34 319.98 24 321 C22.68 321 21.36 321 20 321 C20 321.66 20 322.32 20 323 C19.01 323 18.02 323 17 323 C17 323.66 17 324.32 17 325 C16.34 325 15.68 325 15 325 C14.67 325.99 14.34 326.98 14 328 C1.98010109 328.5683665 1.98010109 328.5683665 -2 325 C-2 324.34 -2 323.68 -2 323 C-2.598125 322.855625 -3.19625 322.71125 -3.8125 322.5625 C-5.56150404 322.1127561 -7.28677023 321.57107659 -9 321 C-9.33 320.34 -9.66 319.68 -10 319 C-12.30965848 317.94647157 -14.6429774 316.94280904 -17 316 C-17 315.01 -17 314.02 -17 313 C-18.65 313 -20.3 313 -22 313 C-22 312.34 -22 311.68 -22 311 C-23.65 310.67 -25.3 310.34 -27 310 C-27 309.34 -27 308.68 -27 308 C-27.66 308 -28.32 308 -29 308 C-29 307.34 -29 306.68 -29 306 C-30.65 306 -32.3 306 -34 306 C-34 305.01 -34 304.02 -34 303 C-35.65 303 -37.3 303 -39 303 C-39 302.34 -39 301.68 -39 301 C-39.66 301 -40.32 301 -41 301 C-41 300.34 -41 299.68 -41 299 C-42.65 299 -44.3 299 -46 299 C-46 298.01 -46 297.02 -46 296 C-47.65 296 -49.3 296 -51 296 C-51 295.34 -51 294.68 -51 294 C-51.99 293.67 -52.98 293.34 -54 293 C-54 292.34 -54 291.68 -54 291 C-55.32 291 -56.64 291 -58 291 C-58 290.34 -58 289.68 -58 289 C-59.65 288.67 -61.3 288.34 -63 288 C-63 287.34 -63 286.68 -63 286 C-63.99 286 -64.98 286 -66 286 C-66 285.34 -66 284.68 -66 284 C-67.65 283.67 -69.3 283.34 -71 283 C-71 282.34 -71 281.68 -71 281 C-71.66 281 -72.32 281 -73 281 C-73 280.34 -73 279.68 -73 279 C-74.65 279 -76.3 279 -78 279 C-78 278.34 -78 277.68 -78 277 C-79.65 276.67 -81.3 276.34 -83 276 C-83 275.34 -83 274.68 -83 274 C-83.78375 273.855625 -84.5675 273.71125 -85.375 273.5625 C-88 273 -88 273 -90 272 C-90 271.01 -90 270.02 -90 269 C-91.65 269 -93.3 269 -95 269 C-95 268.34 -95 267.68 -95 267 C-96.65 266.67 -98.3 266.34 -100 266 C-100 265.34 -100 264.68 -100 264 C-100.99 264 -101.98 264 -103 264 C-103 263.34 -103 262.68 -103 262 C-104.32 262 -105.64 262 -107 262 C-107 261.01 -107 260.02 -107 259 C-107.763125 258.855625 -108.52625 258.71125 -109.3125 258.5625 C-112 258 -112 258 -115 257 C-115 256.01 -115 255.02 -115 254 C-116.32 254 -117.64 254 -119 254 C-119 253.34 -119 252.68 -119 252 C-119.99 252 -120.98 252 -122 252 C-122 251.34 -122 250.68 -122 250 C-123.65 250 -125.3 250 -127 250 C-127 249.01 -127 248.02 -127 247 C-128.65 246.67 -130.3 246.34 -132 246 C-132 243.69 -132 241.38 -132 239 C-132.66 239 -133.32 239 -134 239 C-134 187.52 -134 136.04 -134 83 C-133.34 83 -132.68 83 -132 83 C-132 82.34 -132 81.68 -132 81 C-131.34 81 -130.68 81 -130 81 C-129.67 80.01 -129.34 79.02 -129 78 C-128.34 78 -127.68 78 -127 78 C-127 77.34 -127 76.68 -127 76 C-125.35 76 -123.7 76 -122 76 C-122 75.01 -122 74.02 -122 73 C-120.2984375 72.5978125 -120.2984375 72.5978125 -118.5625 72.1875 C-116.7990625 71.5996875 -116.7990625 71.5996875 -115 71 C-114.505 69.515 -114.505 69.515 -114 68 C-112.68 68 -111.36 68 -110 68 C-110 67.34 -110 66.68 -110 66 C-108.35 66 -106.7 66 -105 66 C-104.34 64.35 -103.68 62.7 -103 61 C-101.35 61 -99.7 61 -98 61 C-98 60.34 -98 59.68 -98 59 C-97.01 59 -96.02 59 -95 59 C-95 58.01 -95 57.02 -95 56 C-93.35 56 -91.7 56 -90 56 C-90 55.34 -90 54.68 -90 54 C-88.35 54 -86.7 54 -85 54 C-85 53.01 -85 52.02 -85 51 C-82 49 -82 49 -78 49 C-78 48.01 -78 47.02 -78 46 C-76.35 46 -74.7 46 -73 46 C-73 45.34 -73 44.68 -73 44 C-72.01 44 -71.02 44 -70 44 C-70 43.34 -70 42.68 -70 42 C-68.68 41.67 -67.36 41.34 -66 41 C-66 40.34 -66 39.68 -66 39 C-64.35 39 -62.7 39 -61 39 C-61 38.34 -61 37.68 -61 37 C-60.01 37 -59.02 37 -58 37 C-58 36.01 -58 35.02 -58 34 C-56.68 34 -55.36 34 -54 34 C-54 33.34 -54 32.68 -54 32 C-52.35 32 -50.7 32 -49 32 C-49 31.01 -49 30.02 -49 29 C-48.01 29 -47.02 29 -46 29 C-46 28.34 -46 27.68 -46 27 C-44.35 27 -42.7 27 -41 27 C-41 26.01 -41 25.02 -41 24 C-39.865625 23.731875 -38.73125 23.46375 -37.5625 23.1875 C-35.7990625 22.5996875 -35.7990625 22.5996875 -34 22 C-33.505 20.515 -33.505 20.515 -33 19 C-31.68 19 -30.36 19 -29 19 C-29 18.34 -29 17.68 -29 17 C-28.21625 16.731875 -27.4325 16.46375 -26.625 16.1875 C-23.71885077 15.15185568 -23.71885077 15.15185568 -22 12 C-19.375 11.8125 -19.375 11.8125 -17 12 C-17 11.34 -17 10.68 -17 10 C-16.360625 9.87625 -15.72125 9.7525 -15.0625 9.625 C-14.381875 9.41875 -13.70125 9.2125 -13 9 C-12.67 8.34 -12.34 7.68 -12 7 C-11.01 7 -10.02 7 -9 7 C-9 6.34 -9 5.68 -9 5 C-7.68 5 -6.36 5 -5 5 C-5 4.01 -5 3.02 -5 2 C-3.35 2 -1.7 2 0 2 C0 1.34 0 0.68 0 0 Z M-5 90 C-5 90.99 -5 91.98 -5 93 C-6.65 93 -8.3 93 -10 93 C-10 93.66 -10 94.32 -10 95 C-11.32 95 -12.64 95 -14 95 C-15.79252059 96.29209912 -15.79252059 96.29209912 -17 98 C-17 98.66 -17 99.32 -17 100 C-17.639375 100.268125 -18.27875 100.53625 -18.9375 100.8125 C-21.33131686 101.88667752 -21.33131686 101.88667752 -22 105 C-22.66 105 -23.32 105 -24 105 C-25.70790088 106.20747941 -25.70790088 106.20747941 -27 108 C-27 109.32 -27 110.64 -27 112 C-27.66 112 -28.32 112 -29 112 C-29 113.65 -29 115.3 -29 117 C-29.99 117 -30.98 117 -32 117 C-32.09087891 117.95712891 -32.09087891 117.95712891 -32.18359375 118.93359375 C-32.26738281 119.75988281 -32.35117188 120.58617187 -32.4375 121.4375 C-32.51871094 122.26121094 -32.59992188 123.08492187 -32.68359375 123.93359375 C-33 126 -33 126 -34 127 C-34.0979057 128.49738124 -34.12974864 129.99942892 -34.125 131.5 C-34.12757813 132.3146875 -34.13015625 133.129375 -34.1328125 133.96875 C-34.2245178 135.99530377 -34.2245178 135.99530377 -33 137 C-32.855625 138.155 -32.71125 139.31 -32.5625 140.5 C-32.376875 141.655 -32.19125 142.81 -32 144 C-31.34 144.33 -30.68 144.66 -30 145 C-29.375 147.0625 -29.375 147.0625 -29 149 C-28.34 149 -27.68 149 -27 149 C-27 149.99 -27 150.98 -27 152 C-25.68732044 153.72943475 -25.68732044 153.72943475 -24 155 C-23.34 155 -22.68 155 -22 155 C-22 155.66 -22 156.32 -22 157 C-20.35 157.66 -18.7 158.32 -17 159 C-17 159.66 -17 160.32 -17 161 C-16.34 161 -15.68 161 -15 161 C-14.875 167.75 -14.875 167.75 -16 170 C-19.0625 170.625 -19.0625 170.625 -22 171 C-22 171.99 -22 172.98 -22 174 C-23.65 174 -25.3 174 -27 174 C-27 174.66 -27 175.32 -27 176 C-28.65 176 -30.3 176 -32 176 C-32 176.99 -32 177.98 -32 179 C-32.66 179 -33.32 179 -34 179 C-34 179.66 -34 180.32 -34 181 C-35.65 181 -37.3 181 -39 181 C-39 181.66 -39 182.32 -39 183 C-39.66 183 -40.32 183 -41 183 C-41 183.99 -41 184.98 -41 186 C-41.99 186 -42.98 186 -44 186 C-44.66 188.31 -45.32 190.62 -46 193 C-46.99 193 -47.98 193 -49 193 C-49 193.99 -49 194.98 -49 196 C-49.66 196 -50.32 196 -51 196 C-51 196.66 -51 197.32 -51 198 C-51.99 198 -52.98 198 -54 198 C-54 199.65 -54 201.3 -54 203 C-54.66 203 -55.32 203 -56 203 C-59.12940055 206.97193147 -59.29162929 210.04230204 -59 215 C-59.66 215 -60.32 215 -61 215 C-61 221.6 -61 228.2 -61 235 C-60.34 235 -59.68 235 -59 235 C-59 235.66 -59 236.32 -59 237 C-55.58168085 239.5393228 -53.24223102 240.3636198 -49 240 C-49 240.66 -49 241.32 -49 242 C-48.01 242 -47.02 242 -46 242 C-46 242.99 -46 243.98 -46 245 C-44.35 245 -42.7 245 -41 245 C-41 245.66 -41 246.32 -41 247 C-39.68 247 -38.36 247 -37 247 C-37 247.99 -37 248.98 -37 250 C-36.01 250 -35.02 250 -34 250 C-34 250.66 -34 251.32 -34 252 C-32.35 252 -30.7 252 -29 252 C-29 252.99 -29 253.98 -29 255 C-27.35 255 -25.7 255 -24 255 C-24 255.66 -24 256.32 -24 257 C-21.35261084 258.4606285 -20.10551666 259 -17 259 C-17 259.99 -17 260.98 -17 262 C-15.35 262 -13.7 262 -12 262 C-12 262.66 -12 263.32 -12 264 C-8.77885843 266.31592022 -8.77885843 266.31592022 -5 267 C-5 267.66 -5 268.32 -5 269 C-3.35 269 -1.7 269 0 269 C0 269.99 0 270.98 0 272 C1.65 272 3.3 272 5 272 C5 272.66 5 273.32 5 274 C10.32170494 274.29562367 10.32170494 274.29562367 15 272 C15 271.01 15 270.02 15 269 C16.65 269 18.3 269 20 269 C20 268.34 20 267.68 20 267 C21.65 267 23.3 267 25 267 C25 266.01 25 265.02 25 264 C25.763125 263.896875 26.52625 263.79375 27.3125 263.6875 C30.26578515 262.93200845 30.95867834 262.13007477 33 260 C35.1875 259.3125 35.1875 259.3125 37 259 C37 258.34 37 257.68 37 257 C37.99 257 38.98 257 40 257 C40 256.34 40 255.68 40 255 C41.32 255 42.64 255 44 255 C44 254.01 44 253.02 44 252 C46.66666667 251.33333333 49.33333333 250.66666667 52 250 C52 249.01 52 248.02 52 247 C53.65 247 55.3 247 57 247 C57 246.34 57 245.68 57 245 C58.32 245 59.64 245 61 245 C61.33 244.34 61.66 243.68 62 243 C64.30965848 241.94647157 66.6429774 240.94280904 69 240 C69 239.34 69 238.68 69 238 C70.65 237.67 72.3 237.34 74 237 C74 236.34 74 235.68 74 235 C74.66 235 75.32 235 76 235 C76.08811914 231.66683723 76.14076197 228.33397953 76.1875 225 C76.21263672 224.06542969 76.23777344 223.13085938 76.26367188 222.16796875 C76.34192259 214.70806746 75.21232824 209.31849236 71 203 C70.34 203 69.68 203 69 203 C69 201.35 69 199.7 69 198 C68.01 198 67.02 198 66 198 C65.5978125 196.3603125 65.5978125 196.3603125 65.1875 194.6875 C63.93293482 190.67458308 63.93293482 190.67458308 61 188 C60.34 188 59.68 188 59 188 C59 187.34 59 186.68 59 186 C58.34 186 57.68 186 57 186 C57 185.01 57 184.02 57 183 C56.01 183 55.02 183 54 183 C54 182.34 54 181.68 54 181 C51.69 180.34 49.38 179.68 47 179 C47 178.01 47 177.02 47 176 C45.35 176 43.7 176 42 176 C42 175.34 42 174.68 42 174 C40.35 174 38.7 174 37 174 C37 173.01 37 172.02 37 171 C35.35 171 33.7 171 32 171 C32 170.34 32 169.68 32 169 C31.34 169 30.68 169 30 169 C30.45822468 165.53058454 30.89131683 162.32604951 32 159 C32.99 159 33.98 159 35 159 C35 158.34 35 157.68 35 157 C35.598125 156.896875 36.19625 156.79375 36.8125 156.6875 C39.36005783 155.88683897 40.41524098 155.13942468 42 153 C42 151.68 42 150.36 42 149 C42.66 149 43.32 149 44 149 C44.185625 148.0409375 44.185625 148.0409375 44.375 147.0625 C44.58125 146.381875 44.7875 145.70125 45 145 C45.66 144.67 46.32 144.34 47 144 C47 141.03 47 138.06 47 135 C47.66 135 48.32 135 49 135 C49.02688151 133.35425434 49.04634123 131.70838587 49.0625 130.0625 C49.07410156 129.14597656 49.08570313 128.22945312 49.09765625 127.28515625 C49.25949049 125.03406673 49.25949049 125.03406673 48 124 C47.76807135 122.48530552 47.58784762 120.96245438 47.4375 119.4375 C47.35371094 118.61121094 47.26992187 117.78492188 47.18359375 116.93359375 C47.12300781 116.29550781 47.06242187 115.65742188 47 115 C46.01 115 45.02 115 44 115 C44 113.35 44 111.7 44 110 C43.34 110 42.68 110 42 110 C42 109.01 42 108.02 42 107 C38.97069936 103.62449357 35.6633969 100.67328963 32 98 C31.34 98 30.68 98 30 98 C30 97.01 30 96.02 30 95 C26.49223216 93.39644899 23.85645121 92.77963136 20 93 C20 92.01 20 91.02 20 90 C11.75 90 3.5 90 -5 90 Z " fill="#4532DA" transform="translate(174,22)"/>
<path d="M0 0 C0.66 0 1.32 0 2 0 C2 0.99 2 1.98 2 3 C2.66 3 3.32 3 4 3 C5.18061592 10.44694785 5.1412939 17.83014764 5.12939453 25.35473633 C5.13075138 26.79930668 5.1325329 28.24387669 5.13470459 29.68844604 C5.13924314 33.59095054 5.13750468 37.49342846 5.1343255 41.39593339 C5.1317858 45.48512227 5.1341437 49.57430895 5.13571167 53.66349792 C5.13752763 60.52363492 5.13514101 67.38376113 5.13037109 74.24389648 C5.12491872 82.17722046 5.12670049 90.11051877 5.1321975 98.04384214 C5.13673202 104.86098126 5.13737784 111.67811265 5.13475883 118.49525279 C5.13319933 122.56468323 5.13299361 126.6341016 5.13629532 130.70353127 C5.13917931 134.52437039 5.1371886 138.34517629 5.13140106 142.16601181 C5.13007677 143.56929532 5.13046199 144.97258162 5.13266373 146.37586403 C5.13538787 148.28803534 5.13136935 150.20021276 5.12698364 152.11238098 C5.12660662 153.1832536 5.12622959 154.25412622 5.12584114 155.35744953 C5 158 5 158 4 161 C3.34 161 2.68 161 2 161 C1.67 162.65 1.34 164.3 1 166 C-0.32 166 -1.64 166 -3 166 C-3 166.99 -3 167.98 -3 169 C-4.65 169 -6.3 169 -8 169 C-8 169.66 -8 170.32 -8 171 C-10.64738916 172.4606285 -11.89448334 173 -15 173 C-15 173.99 -15 174.98 -15 176 C-16.65 176 -18.3 176 -20 176 C-20 176.66 -20 177.32 -20 178 C-21.65 178 -23.3 178 -25 178 C-25 178.99 -25 179.98 -25 181 C-25.66 181 -26.32 181 -27 181 C-27 181.66 -27 182.32 -27 183 C-27.99 183 -28.98 183 -30 183 C-30 183.66 -30 184.32 -30 185 C-31.65 185.33 -33.3 185.66 -35 186 C-35 186.66 -35 187.32 -35 188 C-36.32 188 -37.64 188 -39 188 C-39.33 188.99 -39.66 189.98 -40 191 C-41.32 191 -42.64 191 -44 191 C-44 191.66 -44 192.32 -44 193 C-44.99 193 -45.98 193 -47 193 C-47 193.66 -47 194.32 -47 195 C-48.65 195.33 -50.3 195.66 -52 196 C-52 196.66 -52 197.32 -52 198 C-53.65 198 -55.3 198 -57 198 C-57 198.66 -57 199.32 -57 200 C-57.66 200 -58.32 200 -59 200 C-59.33 200.99 -59.66 201.98 -60 203 C-61.32 203 -62.64 203 -64 203 C-64 203.66 -64 204.32 -64 205 C-65.65 205 -67.3 205 -69 205 C-69 205.99 -69 206.98 -69 208 C-72 210 -72 210 -76 210 C-76 210.99 -76 211.98 -76 213 C-76.99 213 -77.98 213 -79 213 C-79 213.66 -79 214.32 -79 215 C-80.65 215 -82.3 215 -84 215 C-84 215.99 -84 216.98 -84 218 C-87 220 -87 220 -91 220 C-91 220.66 -91 221.32 -91 222 C-92.65 222 -94.3 222 -96 222 C-96 222.99 -96 223.98 -96 225 C-97.65 225 -99.3 225 -101 225 C-101 225.66 -101 226.32 -101 227 C-101.66 227 -102.32 227 -103 227 C-103.33 227.99 -103.66 228.98 -104 230 C-105.32 230 -106.64 230 -108 230 C-108 230.66 -108 231.32 -108 232 C-108.99 232 -109.98 232 -111 232 C-111 232.66 -111 233.32 -111 234 C-112.32 234.33 -113.64 234.66 -115 235 C-115 235.66 -115 236.32 -115 237 C-116.65 237 -118.3 237 -120 237 C-120.33 237.99 -120.66 238.98 -121 240 C-122.32 240 -123.64 240 -125 240 C-125 240.66 -125 241.32 -125 242 C-125.99 242 -126.98 242 -128 242 C-128 242.66 -128 243.32 -128 244 C-128.66 244 -129.32 244 -130 244 C-130.33 244.99 -130.66 245.98 -131 247 C-143.01989891 247.5683665 -143.01989891 247.5683665 -147 244 C-147 243.34 -147 242.68 -147 242 C-147.598125 241.855625 -148.19625 241.71125 -148.8125 241.5625 C-150.56150404 241.1127561 -152.28677023 240.57107659 -154 240 C-154.33 239.34 -154.66 238.68 -155 238 C-157.30965848 236.94647157 -159.6429774 235.94280904 -162 235 C-162 234.01 -162 233.02 -162 232 C-163.65 232 -165.3 232 -167 232 C-167 231.34 -167 230.68 -167 230 C-168.65 229.67 -170.3 229.34 -172 229 C-172 228.34 -172 227.68 -172 227 C-172.66 227 -173.32 227 -174 227 C-174 226.34 -174 225.68 -174 225 C-175.65 225 -177.3 225 -179 225 C-179 224.01 -179 223.02 -179 222 C-180.65 222 -182.3 222 -184 222 C-184 221.34 -184 220.68 -184 220 C-184.66 220 -185.32 220 -186 220 C-186 219.34 -186 218.68 -186 218 C-187.65 218 -189.3 218 -191 218 C-191 217.01 -191 216.02 -191 215 C-192.65 215 -194.3 215 -196 215 C-196 214.34 -196 213.68 -196 213 C-196.99 212.67 -197.98 212.34 -199 212 C-199 211.34 -199 210.68 -199 210 C-200.32 210 -201.64 210 -203 210 C-203 209.34 -203 208.68 -203 208 C-204.65 207.67 -206.3 207.34 -208 207 C-208 206.34 -208 205.68 -208 205 C-208.99 205 -209.98 205 -211 205 C-211 204.34 -211 203.68 -211 203 C-212.65 202.67 -214.3 202.34 -216 202 C-216 201.34 -216 200.68 -216 200 C-216.66 200 -217.32 200 -218 200 C-218 199.34 -218 198.68 -218 198 C-219.65 198 -221.3 198 -223 198 C-223 197.34 -223 196.68 -223 196 C-224.65 195.67 -226.3 195.34 -228 195 C-228 194.34 -228 193.68 -228 193 C-229.175625 192.7834375 -229.175625 192.7834375 -230.375 192.5625 C-233 192 -233 192 -235 191 C-235 190.01 -235 189.02 -235 188 C-236.65 188 -238.3 188 -240 188 C-240 187.34 -240 186.68 -240 186 C-241.65 185.67 -243.3 185.34 -245 185 C-245 184.34 -245 183.68 -245 183 C-245.99 183 -246.98 183 -248 183 C-248 182.34 -248 181.68 -248 181 C-249.32 181 -250.64 181 -252 181 C-252 180.01 -252 179.02 -252 178 C-253.1446875 177.7834375 -253.1446875 177.7834375 -254.3125 177.5625 C-257 177 -257 177 -260 176 C-260 175.01 -260 174.02 -260 173 C-261.32 173 -262.64 173 -264 173 C-264 172.34 -264 171.68 -264 171 C-264.99 171 -265.98 171 -267 171 C-267 170.34 -267 169.68 -267 169 C-268.65 169 -270.3 169 -272 169 C-272 168.01 -272 167.02 -272 166 C-273.65 165.67 -275.3 165.34 -277 165 C-277 163.68 -277 162.36 -277 161 C-273.15228268 162.4188485 -269.79738457 164.2141593 -266.30078125 166.3515625 C-265.18566162 167.03081787 -264.07054199 167.71007324 -262.92163086 168.40991211 C-261.71851389 169.14815521 -260.51547198 169.88652065 -259.3125 170.625 C-258.0725197 171.38252559 -256.83236428 172.13976459 -255.59204102 172.89672852 C-252.37146423 174.86388828 -249.1540582 176.83616682 -245.93786621 178.81048584 C-244.02311212 179.98581316 -242.10781601 181.16025245 -240.19238281 182.33447266 C-234.45674419 185.85133473 -228.72408763 189.37304229 -222.99609375 192.90234375 C-221.65309204 193.72980103 -221.65309204 193.72980103 -220.28295898 194.57397461 C-218.5028319 195.68591155 -216.74636558 196.83575628 -215 198 C-212.35367713 197.6878236 -212.35367713 197.6878236 -210 197 C-210.03330917 195.57632362 -210.03330917 195.57632362 -210.06729126 194.12388611 C-210.27030892 185.16437002 -210.42005025 176.20532231 -210.51812172 167.24402523 C-210.57023982 162.63704774 -210.64087804 158.03193151 -210.75439453 153.42602539 C-210.86333233 148.97788393 -210.92289666 144.53152797 -210.94877243 140.08215523 C-210.96720195 138.38788297 -211.00319585 136.69370489 -211.05730057 135.00019646 C-211.46564425 121.68501184 -211.46564425 121.68501184 -207.78947449 117.45861816 C-205.2644431 115.70253547 -202.74669344 114.36765395 -200 113 C-197.64853017 110.3530006 -197.64853017 110.3530006 -196.0625 107.625 C-188.41374454 96.50921424 -177.28157539 90.0249032 -165 85 C-163.68 85 -162.36 85 -161 85 C-161 84.34 -161 83.68 -161 83 C-161.7425 82.74347656 -162.485 82.48695313 -163.25 82.22265625 C-170.67954296 78.91946457 -175.990177 71.37289975 -179 64 C-182.42131649 52.44247857 -182.96861853 39.60107802 -177.5390625 28.60546875 C-171.6459629 18.62907933 -163.21019786 9.55404736 -152.015625 5.62890625 C-138.73854489 2.85998151 -125.46233566 4.61389606 -113.9375 11.94921875 C-106.73663349 17.39878757 -99.75335087 24.82698142 -98 34 C-98.99 34 -99.98 34 -101 34 C-101 32.35 -101 30.7 -101 29 C-101.66 29 -102.32 29 -103 29 C-103 28.01 -103 27.02 -103 26 C-103.99 25.67 -104.98 25.34 -106 25 C-106.928125 23.824375 -106.928125 23.824375 -107.875 22.625 C-109.85036443 19.87257289 -109.85036443 19.87257289 -112.75 18.375 C-113.4925 17.92125 -114.235 17.4675 -115 17 C-115 16.01 -115 15.02 -115 14 C-115.721875 13.855625 -116.44375 13.71125 -117.1875 13.5625 C-119.79166667 13.04166667 -122.39583333 12.52083333 -125 12 C-125 11.01 -125 10.02 -125 9 C-133.25 9 -141.5 9 -150 9 C-150 9.99 -150 10.98 -150 12 C-151.65 12 -153.3 12 -155 12 C-155 12.66 -155 13.32 -155 14 C-156.32 14 -157.64 14 -159 14 C-159.33 14.99 -159.66 15.98 -160 17 C-160.66 17 -161.32 17 -162 17 C-162 17.66 -162 18.32 -162 19 C-164.375 21.625 -164.375 21.625 -167 24 C-167.66 24 -168.32 24 -169 24 C-169.495 25.485 -169.495 25.485 -170 27 C-170.66 27 -171.32 27 -172 27 C-172 28.32 -172 29.64 -172 31 C-172.66 31 -173.32 31 -174 31 C-174 32.65 -174 34.3 -174 36 C-174.99 36 -175.98 36 -177 36 C-176.98839844 36.63808594 -176.97679687 37.27617187 -176.96484375 37.93359375 C-176.95582031 38.75988281 -176.94679688 39.58617187 -176.9375 40.4375 C-176.92589844 41.26121094 -176.91429687 42.08492187 -176.90234375 42.93359375 C-177 45 -177 45 -178 46 C-178.0979057 47.49738124 -178.12974864 48.99942892 -178.125 50.5 C-178.12757813 51.3146875 -178.13015625 52.129375 -178.1328125 52.96875 C-178.2245178 54.99530377 -178.2245178 54.99530377 -177 56 C-176.95907063 58.33297433 -176.95758277 60.66705225 -177 63 C-175.515 63.495 -175.515 63.495 -174 64 C-174 65.32 -174 66.64 -174 68 C-173.34 68 -172.68 68 -172 68 C-172 68.99 -172 69.98 -172 71 C-170.515 71.495 -170.515 71.495 -169 72 C-169 72.66 -169 73.32 -169 74 C-168.34 74 -167.68 74 -167 74 C-167 74.66 -167 75.32 -167 76 C-165.35 76.66 -163.7 77.32 -162 78 C-162 78.66 -162 79.32 -162 80 C-161.34 80 -160.68 80 -160 80 C-158.75 86.625 -158.75 86.625 -161 90 C-164.125 90.1875 -164.125 90.1875 -167 90 C-167 90.99 -167 91.98 -167 93 C-168.65 93 -170.3 93 -172 93 C-172 93.66 -172 94.32 -172 95 C-173.65 95 -175.3 95 -177 95 C-177 95.99 -177 96.98 -177 98 C-177.66 98 -178.32 98 -179 98 C-179 98.66 -179 99.32 -179 100 C-180.65 100 -182.3 100 -184 100 C-184 100.66 -184 101.32 -184 102 C-184.66 102 -185.32 102 -186 102 C-186 102.99 -186 103.98 -186 105 C-186.99 105 -187.98 105 -189 105 C-189.144375 105.78375 -189.28875 106.5675 -189.4375 107.375 C-190 110 -190 110 -191 112 C-191.99 112 -192.98 112 -194 112 C-194 112.99 -194 113.98 -194 115 C-194.66 115 -195.32 115 -196 115 C-196 115.66 -196 116.32 -196 117 C-196.99 117 -197.98 117 -199 117 C-199 118.65 -199 120.3 -199 122 C-199.66 122 -200.32 122 -201 122 C-201.144375 122.639375 -201.28875 123.27875 -201.4375 123.9375 C-202 126 -202 126 -203 127 C-203.36760731 129.32817964 -203.70241581 131.6618385 -204 134 C-204.66 134 -205.32 134 -206 134 C-206 140.6 -206 147.2 -206 154 C-205.34 154 -204.68 154 -204 154 C-204 154.66 -204 155.32 -204 156 C-203.46375 156.12375 -202.9275 156.2475 -202.375 156.375 C-199.5361714 157.12206016 -196.77776798 158.05303364 -194 159 C-194 159.66 -194 160.32 -194 161 C-193.01 161 -192.02 161 -191 161 C-191 161.99 -191 162.98 -191 164 C-189.35 164 -187.7 164 -186 164 C-186 164.66 -186 165.32 -186 166 C-184.68 166 -183.36 166 -182 166 C-182 166.99 -182 167.98 -182 169 C-181.01 169 -180.02 169 -179 169 C-179 169.66 -179 170.32 -179 171 C-177.35 171 -175.7 171 -174 171 C-174 171.99 -174 172.98 -174 174 C-172.35 174 -170.7 174 -169 174 C-169 174.66 -169 175.32 -169 176 C-166.69 176.66 -164.38 177.32 -162 178 C-162 178.99 -162 179.98 -162 181 C-160.35 181 -158.7 181 -157 181 C-157 181.66 -157 182.32 -157 183 C-156.21625 183.309375 -155.4325 183.61875 -154.625 183.9375 C-152 185 -152 185 -150 186 C-150 186.66 -150 187.32 -150 188 C-148.35 188 -146.7 188 -145 188 C-145 188.99 -145 189.98 -145 191 C-143.35 191 -141.7 191 -140 191 C-140 191.66 -140 192.32 -140 193 C-136.53058454 192.54177532 -133.32604951 192.10868317 -130 191 C-130 190.01 -130 189.02 -130 188 C-128.35 188 -126.7 188 -125 188 C-125 187.34 -125 186.68 -125 186 C-123.35 186 -121.7 186 -120 186 C-120 185.01 -120 184.02 -120 183 C-118.2984375 182.5978125 -118.2984375 182.5978125 -116.5625 182.1875 C-115.386875 181.795625 -114.21125 181.40375 -113 181 C-112.67 180.01 -112.34 179.02 -112 178 C-110.68 178 -109.36 178 -108 178 C-108 177.34 -108 176.68 -108 176 C-107.01 176 -106.02 176 -105 176 C-105 175.34 -105 174.68 -105 174 C-103.68 174 -102.36 174 -101 174 C-101 173.01 -101 172.02 -101 171 C-97.91190305 169.23537317 -96.76687864 169 -93 169 C-93 168.01 -93 167.02 -93 166 C-91.35 166 -89.7 166 -88 166 C-88 165.34 -88 164.68 -88 164 C-86.68 164 -85.36 164 -84 164 C-83.67 163.01 -83.34 162.02 -83 161 C-80.39757586 159.35179805 -79.13751221 159 -76 159 C-76 158.34 -76 157.68 -76 157 C-74.35 156.67 -72.7 156.34 -71 156 C-71 155.34 -71 154.68 -71 154 C-70.34 154 -69.68 154 -69 154 C-69.08181974 150.66573244 -69.19457074 147.33317031 -69.3125 144 C-69.33505859 143.06542969 -69.35761719 142.13085938 -69.38085938 141.16796875 C-69.61317442 135.12777757 -70.59224671 130.54587903 -73 125 C-73.33 124.01 -73.66 123.02 -74 122 C-74.66 122 -75.32 122 -76 122 C-76 120.35 -76 118.7 -76 117 C-76.99 117 -77.98 117 -79 117 C-81 114 -81 114 -81 110 C-81.99 109.67 -82.98 109.34 -84 109 C-84 108.34 -84 107.68 -84 107 C-84.66 107 -85.32 107 -86 107 C-86 106.34 -86 105.68 -86 105 C-86.66 105 -87.32 105 -88 105 C-88 104.01 -88 103.02 -88 102 C-88.99 102 -89.98 102 -91 102 C-91 101.34 -91 100.68 -91 100 C-91.78375 99.855625 -92.5675 99.71125 -93.375 99.5625 C-96 99 -96 99 -98 98 C-98 97.01 -98 96.02 -98 95 C-99.65 95 -101.3 95 -103 95 C-103 94.34 -103 93.68 -103 93 C-104.65 93 -106.3 93 -108 93 C-108 92.01 -108 91.02 -108 90 C-109.65 90 -111.3 90 -113 90 C-113 89.34 -113 88.68 -113 88 C-113.66 88 -114.32 88 -115 88 C-115 87.01 -115 86.02 -115 85 C-100.23182925 88.43065914 -87.2438743 97.30620294 -78.9921875 110.1171875 C-71.88629369 120.39983384 -56.03011092 126.80603472 -45.46533203 132.96923828 C-39.23288236 136.61423765 -33.03264085 140.31407088 -26.8265686 144.00372314 C-23.95127162 145.71301448 -21.07524913 147.42108301 -18.19923401 149.12916565 C-15.46599231 150.75250162 -12.73298984 152.37624005 -10 154 C-11.34443184 152.65556816 -12.8517677 151.84848682 -14.48828125 150.875 C-15.24415527 150.42382812 -16.0000293 149.97265625 -16.77880859 149.5078125 C-17.61492676 149.01023438 -18.45104492 148.51265625 -19.3125 148 C-27.56055085 143.0704829 -35.79211814 138.11449327 -44.00814819 133.13183594 C-45.24499206 132.38196156 -46.48215056 131.63260586 -47.71963501 130.88378906 C-49.477961 129.81968666 -51.23520692 128.75382203 -52.9921875 127.6875 C-54.00651855 127.07261719 -55.02084961 126.45773438 -56.06591797 125.82421875 C-59.09042824 123.94377768 -62.0473574 121.99076778 -65 120 C-60.63837638 108.59778598 -60.63837638 108.59778598 -58 105 C-57.34 105 -56.68 105 -56 105 C-55.73703125 104.31421875 -55.4740625 103.6284375 -55.203125 102.921875 C-50.32138563 91.06622225 -43.77998757 79.91724097 -37.49169922 68.77319336 C-33.38376701 61.48916544 -29.34675408 54.17164435 -25.375 46.8125 C-24.58077637 45.34176025 -24.58077637 45.34176025 -23.77050781 43.84130859 C-22.71078645 41.87793628 -21.65137683 39.91439566 -20.59228516 37.95068359 C-17.92325344 33.00466745 -15.24583751 28.06326776 -12.5625 23.125 C-12.09054199 22.25206299 -11.61858398 21.37912598 -11.13232422 20.47973633 C-8.29877471 15.2698395 -5.33017051 10.17128027 -2.21459961 5.12451172 C-0.86739448 2.92938746 -0.86739448 2.92938746 0 0 Z " fill="#7678FB" transform="translate(319,103)"/>
<path d="M0 0 C3.84138787 1.49488809 7.28931211 3.22644999 10.84765625 5.31640625 C11.68834656 5.80877777 11.68834656 5.80877777 12.54602051 6.31109619 C14.38708753 7.39113588 16.22490092 8.47657191 18.0625 9.5625 C19.35730515 10.32452295 20.65214622 11.08648487 21.94702148 11.84838867 C33.18941464 18.47545901 44.34711437 25.23975309 55.48828125 32.03515625 C62.17457162 36.11264243 68.8867145 40.14592193 75.61157227 44.15942383 C79.86154799 46.6998598 84.06991673 49.28957009 88.23413086 51.96875 C90.19068161 53.1772457 90.19068161 53.1772457 93.3125 54.25 C96.90787593 56.59117503 97.12083025 58.7986959 98.2421875 62.80078125 C99.38211825 66.10893081 101.37888087 67.72836342 104 70 C105.35882102 71.3913028 106.71266103 72.78748114 108.0625 74.1875 C110.56110536 76.77516456 112.68997304 78.56246045 116 80 C116 80.66 116 81.32 116 82 C115.18917969 82.27972656 114.37835938 82.55945313 113.54296875 82.84765625 C105.64781735 85.70608708 98.82678646 89.11114002 92 94 C91.04867187 94.67289063 91.04867187 94.67289063 90.078125 95.359375 C85.20695277 99.15799555 81.95133507 104.01482476 78.50390625 109.09765625 C75.9605417 112.04573716 75.25832076 112.2931308 71.88574219 113.60253906 C69.62561592 114.84098553 69.62561592 114.84098553 68 117 C66.84710477 122.74315146 67.1439009 128.4306076 67.32421875 134.26171875 C67.34676914 135.97609316 67.36533312 137.69052424 67.38008118 139.40498352 C67.42756409 143.91138706 67.52047353 148.41563403 67.62554932 152.92102051 C67.78725677 160.14225427 67.88437032 167.36448451 67.97312355 174.5869236 C68.01135152 177.11245789 68.07155514 179.63676894 68.13468933 182.16178894 C68.16155409 183.70249492 68.18789419 185.24321018 68.21362305 186.78393555 C68.23697723 187.48889664 68.26033142 188.19385773 68.28439331 188.92018127 C68.30693054 190.86991882 68.30693054 190.86991882 68 194 C65 196 65 196 62.57836914 195.79541016 C59.86442602 194.95817631 58.05177219 193.91756995 55.74609375 192.2734375 C51.29195899 189.18521291 46.7259573 186.38360357 42.0625 183.625 C30.51127489 176.74595525 19.07378875 169.68580128 7.63696289 162.61889648 C5.05837643 160.96281859 5.05837643 160.96281859 2.37276936 159.79625988 C0 158 0 158 -0.61523914 155.16331196 C-0.61063018 154.00093101 -0.60602121 152.83855005 -0.60127258 151.64094543 C-0.60554471 150.99318089 -0.60981683 150.34541634 -0.61421841 149.67802256 C-0.6224676 147.50315505 -0.59493658 145.33020789 -0.56762695 143.15551758 C-0.56621688 141.59844508 -0.56700768 140.04136926 -0.56983948 138.48429871 C-0.57127664 134.2529163 -0.541839 130.02223966 -0.50696969 125.79102159 C-0.47575576 121.37078297 -0.47277939 116.95052896 -0.46684265 112.53019714 C-0.45128955 104.15780598 -0.41024139 95.78574048 -0.3600952 87.41349286 C-0.30424723 77.8828163 -0.27672671 68.35212435 -0.25161803 58.82132494 C-0.19932671 39.21403472 -0.11135606 19.60703786 0 0 Z " fill="#3F2CD7" transform="translate(42,106)"/>
<path d="M0 0 C0.33 0 0.66 0 1 0 C1 49.5 1 99 1 150 C0.34 150 -0.32 150 -1 150 C-0.67 150.99 -0.34 151.98 0 153 C-1.98 153.99 -1.98 153.99 -4 155 C-4.99 154.01 -4.99 154.01 -6 153 C-9.90299519 149.63437372 -14.00024139 147.19719925 -18.5 144.75 C-24.47935839 141.44001011 -30.34715479 138.00916057 -36.14453125 134.38671875 C-39.37134523 132.3754669 -42.62710979 130.41464488 -45.88671875 128.45703125 C-46.9327124 127.82692139 -47.97870605 127.19681152 -49.05639648 126.54760742 C-51.16690597 125.27704231 -53.27966546 124.01020635 -55.39477539 122.74731445 C-56.36278076 122.16296631 -57.33078613 121.57861816 -58.328125 120.9765625 C-59.2037207 120.45143066 -60.07931641 119.92629883 -60.98144531 119.38525391 C-63 118 -63 118 -64 116 C-62.92481882 113.55667274 -61.80191434 111.23245477 -60.5625 108.875 C-60.22412109 108.21628906 -59.88574219 107.55757813 -59.53710938 106.87890625 C-58.69850074 105.24893453 -57.85015189 103.62398091 -57 102 C-56.34 102 -55.68 102 -55 102 C-54.73703125 101.31421875 -54.4740625 100.6284375 -54.203125 99.921875 C-49.32138563 88.06622225 -42.77998757 76.91724097 -36.49169922 65.77319336 C-32.38376701 58.48916544 -28.34675408 51.17164435 -24.375 43.8125 C-23.84551758 42.83200684 -23.31603516 41.85151367 -22.77050781 40.84130859 C-21.71078645 38.87793628 -20.65137683 36.91439566 -19.59228516 34.95068359 C-16.92325344 30.00466745 -14.24583751 25.06326776 -11.5625 20.125 C-11.09054199 19.25206299 -10.61858398 18.37912598 -10.13232422 17.47973633 C-3.47748617 5.24383944 -3.47748617 5.24383944 0 0 Z " fill="#6F6AF3" transform="translate(318,106)"/>
<path d="M0 0 C0 3.55833036 -0.90602687 5.03054232 -2.60546875 8.13671875 C-3.17015869 9.17658936 -3.73484863 10.21645996 -4.31665039 11.2878418 C-4.93403076 12.409729 -5.55141113 13.53161621 -6.1875 14.6875 C-6.82797935 15.86141508 -7.46786402 17.03565479 -8.10717773 18.21020508 C-9.42441743 20.6286737 -10.7448206 23.04537578 -12.06738281 25.4609375 C-13.84794586 28.71649572 -15.61039241 31.98154401 -17.3671875 35.25 C-23.20522439 46.10575111 -29.15914963 56.88633697 -35.24609375 67.60449219 C-38.8919107 74.02690997 -42.49911701 80.46896164 -46.0625 86.9375 C-46.50352051 87.73575195 -46.94454102 88.53400391 -47.39892578 89.35644531 C-50.05069085 94.18362277 -52.56615971 99.059248 -55 104 C-55.66 104 -56.32 104 -57 104 C-57.28617187 104.71542969 -57.57234375 105.43085938 -57.8671875 106.16796875 C-59.578125 110.4453125 -61.2890625 114.72265625 -63 119 C-48.75305994 127.68628012 -34.50207818 136.36006464 -20.10693359 144.79956055 C-15.01873844 147.78632613 -9.98399518 150.84220152 -5 154 C-5.66 154.33 -6.32 154.66 -7 155 C-9.37368743 153.85034199 -11.6029204 152.64141096 -13.875 151.3125 C-14.58261475 150.90604248 -15.29022949 150.49958496 -16.01928711 150.08081055 C-24.1597661 145.37952275 -32.2148743 140.53273986 -40.25390625 135.66064453 C-43.16479451 133.90034386 -46.08215434 132.15108469 -49 130.40234375 C-75.66014545 114.38015893 -75.66014545 114.38015893 -82.3515625 105.22265625 C-90.17141944 94.67882071 -101.60116786 87.96762628 -114 84 C-113.125 79.25 -113.125 79.25 -112 77 C-111.01 77 -110.02 77 -109 77 C-109 76.34 -109 75.68 -109 75 C-107.515 74.505 -107.515 74.505 -106 74 C-105.34 73.01 -104.68 72.02 -104 71 C-103.34 71 -102.68 71 -102 71 C-102 69.68 -102 68.36 -102 67 C-101.34 67 -100.68 67 -100 67 C-99.67 65.35 -99.34 63.7 -99 62 C-98.34 62 -97.68 62 -97 62 C-96.94328125 61.40316406 -96.8865625 60.80632812 -96.828125 60.19140625 C-95.62325581 57.00304958 -93.74917586 56.44109752 -90.75 54.9375 C-87.07848391 53.0670114 -83.52319297 51.13636671 -80 49 C-79.09016357 48.45118164 -78.18032715 47.90236328 -77.24291992 47.33691406 C-73.88999807 45.30978082 -70.53814184 43.28089901 -67.1875 41.25 C-66.56907227 40.87517487 -65.95064453 40.50034973 -65.31347656 40.11416626 C-55.67616846 34.26907077 -46.0994021 28.33394467 -36.55541992 22.33740234 C-29.28806315 17.78054015 -21.96341096 13.32818927 -14.59179688 8.94213867 C-9.68729395 6.0239174 -4.82625776 3.04599988 0 0 Z " fill="#3B25D5" transform="translate(318,104)"/>
<path d="M0 0 C7.20086651 5.44956882 14.18414913 12.87776267 15.9375 22.05078125 C14.9475 22.05078125 13.9575 22.05078125 12.9375 22.05078125 C12.9375 20.40078125 12.9375 18.75078125 12.9375 17.05078125 C12.2775 17.05078125 11.6175 17.05078125 10.9375 17.05078125 C10.9375 16.06078125 10.9375 15.07078125 10.9375 14.05078125 C9.4525 13.55578125 9.4525 13.55578125 7.9375 13.05078125 C7.31875 12.26703125 6.7 11.48328125 6.0625 10.67578125 C4.08713557 7.92335414 4.08713557 7.92335414 1.1875 6.42578125 C0.445 5.97203125 -0.2975 5.51828125 -1.0625 5.05078125 C-1.0625 4.06078125 -1.0625 3.07078125 -1.0625 2.05078125 C-2.1453125 1.83421875 -2.1453125 1.83421875 -3.25 1.61328125 C-5.85416667 1.09244792 -8.45833333 0.57161458 -11.0625 0.05078125 C-11.0625 -0.93921875 -11.0625 -1.92921875 -11.0625 -2.94921875 C-19.3125 -2.94921875 -27.5625 -2.94921875 -36.0625 -2.94921875 C-36.0625 -1.95921875 -36.0625 -0.96921875 -36.0625 0.05078125 C-37.7125 0.05078125 -39.3625 0.05078125 -41.0625 0.05078125 C-41.0625 0.71078125 -41.0625 1.37078125 -41.0625 2.05078125 C-42.3825 2.05078125 -43.7025 2.05078125 -45.0625 2.05078125 C-45.3925 3.04078125 -45.7225 4.03078125 -46.0625 5.05078125 C-46.7225 5.05078125 -47.3825 5.05078125 -48.0625 5.05078125 C-48.0625 5.71078125 -48.0625 6.37078125 -48.0625 7.05078125 C-50.4375 9.67578125 -50.4375 9.67578125 -53.0625 12.05078125 C-53.7225 12.05078125 -54.3825 12.05078125 -55.0625 12.05078125 C-55.5575 13.53578125 -55.5575 13.53578125 -56.0625 15.05078125 C-56.7225 15.05078125 -57.3825 15.05078125 -58.0625 15.05078125 C-58.0625 16.37078125 -58.0625 17.69078125 -58.0625 19.05078125 C-58.7225 19.05078125 -59.3825 19.05078125 -60.0625 19.05078125 C-60.0625 20.70078125 -60.0625 22.35078125 -60.0625 24.05078125 C-61.0525 24.05078125 -62.0425 24.05078125 -63.0625 24.05078125 C-63.05089844 24.68886719 -63.03929687 25.32695312 -63.02734375 25.984375 C-63.01832031 26.81066406 -63.00929687 27.63695312 -63 28.48828125 C-62.98839844 29.31199219 -62.97679687 30.13570312 -62.96484375 30.984375 C-63.0625 33.05078125 -63.0625 33.05078125 -64.0625 34.05078125 C-64.1604057 35.54816249 -64.19224864 37.05021017 -64.1875 38.55078125 C-64.19007813 39.36546875 -64.19265625 40.18015625 -64.1953125 41.01953125 C-64.2870178 43.04608502 -64.2870178 43.04608502 -63.0625 44.05078125 C-63.02157063 46.38375558 -63.02008277 48.7178335 -63.0625 51.05078125 C-62.0725 51.38078125 -61.0825 51.71078125 -60.0625 52.05078125 C-60.0625 53.37078125 -60.0625 54.69078125 -60.0625 56.05078125 C-59.4025 56.05078125 -58.7425 56.05078125 -58.0625 56.05078125 C-58.0625 57.04078125 -58.0625 58.03078125 -58.0625 59.05078125 C-57.0725 59.38078125 -56.0825 59.71078125 -55.0625 60.05078125 C-55.0625 60.71078125 -55.0625 61.37078125 -55.0625 62.05078125 C-54.4025 62.05078125 -53.7425 62.05078125 -53.0625 62.05078125 C-53.0625 62.71078125 -53.0625 63.37078125 -53.0625 64.05078125 C-51.4125 64.71078125 -49.7625 65.37078125 -48.0625 66.05078125 C-48.0625 66.71078125 -48.0625 67.37078125 -48.0625 68.05078125 C-47.4025 68.05078125 -46.7425 68.05078125 -46.0625 68.05078125 C-44.8125 74.67578125 -44.8125 74.67578125 -47.0625 78.05078125 C-50.1875 78.23828125 -50.1875 78.23828125 -53.0625 78.05078125 C-53.0625 79.04078125 -53.0625 80.03078125 -53.0625 81.05078125 C-54.7125 81.05078125 -56.3625 81.05078125 -58.0625 81.05078125 C-58.0625 81.71078125 -58.0625 82.37078125 -58.0625 83.05078125 C-59.7125 83.05078125 -61.3625 83.05078125 -63.0625 83.05078125 C-63.0625 84.04078125 -63.0625 85.03078125 -63.0625 86.05078125 C-63.7225 86.05078125 -64.3825 86.05078125 -65.0625 86.05078125 C-65.0625 86.71078125 -65.0625 87.37078125 -65.0625 88.05078125 C-66.7125 88.05078125 -68.3625 88.05078125 -70.0625 88.05078125 C-70.0625 88.71078125 -70.0625 89.37078125 -70.0625 90.05078125 C-70.7225 90.05078125 -71.3825 90.05078125 -72.0625 90.05078125 C-72.0625 91.04078125 -72.0625 92.03078125 -72.0625 93.05078125 C-73.0525 93.05078125 -74.0425 93.05078125 -75.0625 93.05078125 C-75.2790625 94.22640625 -75.2790625 94.22640625 -75.5 95.42578125 C-76.0625 98.05078125 -76.0625 98.05078125 -77.0625 100.05078125 C-78.0525 100.05078125 -79.0425 100.05078125 -80.0625 100.05078125 C-80.0625 101.04078125 -80.0625 102.03078125 -80.0625 103.05078125 C-80.7225 103.05078125 -81.3825 103.05078125 -82.0625 103.05078125 C-82.0625 103.71078125 -82.0625 104.37078125 -82.0625 105.05078125 C-83.0525 105.05078125 -84.0425 105.05078125 -85.0625 105.05078125 C-85.0625 106.70078125 -85.0625 108.35078125 -85.0625 110.05078125 C-85.7225 110.05078125 -86.3825 110.05078125 -87.0625 110.05078125 C-87.206875 110.69015625 -87.35125 111.32953125 -87.5 111.98828125 C-88.0625 114.05078125 -88.0625 114.05078125 -89.0625 115.05078125 C-89.43010731 117.37896089 -89.76491581 119.71261975 -90.0625 122.05078125 C-90.7225 122.05078125 -91.3825 122.05078125 -92.0625 122.05078125 C-92.0625 128.65078125 -92.0625 135.25078125 -92.0625 142.05078125 C-91.4025 142.05078125 -90.7425 142.05078125 -90.0625 142.05078125 C-90.0625 142.71078125 -90.0625 143.37078125 -90.0625 144.05078125 C-89.258125 144.23640625 -89.258125 144.23640625 -88.4375 144.42578125 C-85.5986714 145.17284141 -82.84026798 146.10381489 -80.0625 147.05078125 C-80.0625 147.71078125 -80.0625 148.37078125 -80.0625 149.05078125 C-79.0725 149.05078125 -78.0825 149.05078125 -77.0625 149.05078125 C-77.0625 150.04078125 -77.0625 151.03078125 -77.0625 152.05078125 C-75.4125 152.05078125 -73.7625 152.05078125 -72.0625 152.05078125 C-72.0625 152.71078125 -72.0625 153.37078125 -72.0625 154.05078125 C-70.7425 154.05078125 -69.4225 154.05078125 -68.0625 154.05078125 C-68.0625 155.04078125 -68.0625 156.03078125 -68.0625 157.05078125 C-67.0725 157.05078125 -66.0825 157.05078125 -65.0625 157.05078125 C-65.0625 157.71078125 -65.0625 158.37078125 -65.0625 159.05078125 C-63.4125 159.05078125 -61.7625 159.05078125 -60.0625 159.05078125 C-60.0625 160.04078125 -60.0625 161.03078125 -60.0625 162.05078125 C-58.4125 162.05078125 -56.7625 162.05078125 -55.0625 162.05078125 C-55.0625 162.71078125 -55.0625 163.37078125 -55.0625 164.05078125 C-52.7525 164.71078125 -50.4425 165.37078125 -48.0625 166.05078125 C-48.0625 167.04078125 -48.0625 168.03078125 -48.0625 169.05078125 C-46.4125 169.05078125 -44.7625 169.05078125 -43.0625 169.05078125 C-43.0625 169.71078125 -43.0625 170.37078125 -43.0625 171.05078125 C-42.27875 171.36015625 -41.495 171.66953125 -40.6875 171.98828125 C-38.0625 173.05078125 -38.0625 173.05078125 -36.0625 174.05078125 C-36.0625 174.71078125 -36.0625 175.37078125 -36.0625 176.05078125 C-34.4125 176.05078125 -32.7625 176.05078125 -31.0625 176.05078125 C-31.02125 176.62828125 -30.98 177.20578125 -30.9375 177.80078125 C-30.2221798 180.39634763 -30.2221798 180.39634763 -27.04443359 181.51074219 C-24.0625 184.05078125 -24.0625 184.05078125 -23.52960205 186.26281738 C-23.36672333 189.17237187 -23.3889238 192.02849552 -23.4765625 194.94140625 C-23.48505219 196.00115662 -23.49354187 197.06090698 -23.50228882 198.152771 C-23.5358671 201.53647669 -23.61115958 204.91779634 -23.6875 208.30078125 C-23.71759365 210.59501766 -23.74497049 212.88929144 -23.76953125 215.18359375 C-23.83567262 220.80680321 -23.93606592 226.4286218 -24.0625 232.05078125 C-28.2158302 230.43456916 -32.06476716 228.49607034 -35.9375 226.30078125 C-36.61659424 225.91736572 -37.29568848 225.5339502 -37.99536133 225.13891602 C-48.15786125 219.34673012 -58.09962657 213.17735379 -68.0625 207.05078125 C-69.05491699 206.44121582 -69.05491699 206.44121582 -70.06738281 205.81933594 C-72.64023288 204.23885005 -75.21143224 202.65572427 -77.78125 201.0703125 C-84.86333186 196.71145974 -91.96470932 192.38399264 -99.0625 188.05078125 C-98.57125137 187.54174759 -98.08000275 187.03271393 -97.5738678 186.508255 C-95.56116436 183.23561292 -95.73708956 180.44323007 -95.88061523 176.73120117 C-95.89624008 176.00058975 -95.91186493 175.26997833 -95.92796326 174.51722717 C-95.96276314 172.93364563 -96.00400859 171.3501955 -96.05096245 169.76692772 C-96.12178053 167.25690841 -96.16771494 164.74760986 -96.20582581 162.2368927 C-96.31563844 155.10009786 -96.44639692 147.96457113 -96.65209961 140.82983398 C-96.776249 136.46157076 -96.85104572 132.09477937 -96.89445686 127.72500038 C-96.92039282 126.06411216 -96.96472597 124.4034019 -97.02810478 122.74352074 C-97.51598744 109.71215128 -97.51598744 109.71215128 -93.85865784 105.53173828 C-91.33201713 103.77470989 -88.80618054 102.42934347 -86.0625 101.05078125 C-83.71103017 98.40378185 -83.71103017 98.40378185 -82.125 95.67578125 C-74.47624454 84.55999549 -63.34407539 78.07568445 -51.0625 73.05078125 C-49.7425 73.05078125 -48.4225 73.05078125 -47.0625 73.05078125 C-47.0625 72.39078125 -47.0625 71.73078125 -47.0625 71.05078125 C-47.805 70.79425781 -48.5475 70.53773438 -49.3125 70.2734375 C-56.74204296 66.97024582 -62.052677 59.423681 -65.0625 52.05078125 C-68.48381649 40.49325982 -69.03111853 27.65185927 -63.6015625 16.65625 C-57.7084629 6.67986058 -49.27269786 -2.39517139 -38.078125 -6.3203125 C-24.80104489 -9.08923724 -11.52483566 -7.33532269 0 0 Z " fill="#5041DE" transform="translate(205.0625,114.94921875)"/>
<path d="M0 0 C0.66 0 1.32 0 2 0 C2 0.99 2 1.98 2 3 C2.66 3 3.32 3 4 3 C5.18061592 10.44694785 5.1412939 17.83014764 5.12939453 25.35473633 C5.13075138 26.79930668 5.1325329 28.24387669 5.13470459 29.68844604 C5.13924314 33.59095054 5.13750468 37.49342846 5.1343255 41.39593339 C5.1317858 45.48512227 5.1341437 49.57430895 5.13571167 53.66349792 C5.13752763 60.52363492 5.13514101 67.38376113 5.13037109 74.24389648 C5.12491872 82.17722046 5.12670049 90.11051877 5.1321975 98.04384214 C5.13673202 104.86098126 5.13737784 111.67811265 5.13475883 118.49525279 C5.13319933 122.56468323 5.13299361 126.6341016 5.13629532 130.70353127 C5.13917931 134.52437039 5.1371886 138.34517629 5.13140106 142.16601181 C5.13007677 143.56929532 5.13046199 144.97258162 5.13266373 146.37586403 C5.13538787 148.28803534 5.13136935 150.20021276 5.12698364 152.11238098 C5.12660662 153.1832536 5.12622959 154.25412622 5.12584114 155.35744953 C5 158 5 158 4 161 C3.34 161 2.68 161 2 161 C1.67 162.65 1.34 164.3 1 166 C-0.32 166 -1.64 166 -3 166 C-3 166.99 -3 167.98 -3 169 C-4.65 169 -6.3 169 -8 169 C-8 169.66 -8 170.32 -8 171 C-10.64738916 172.4606285 -11.89448334 173 -15 173 C-15 173.99 -15 174.98 -15 176 C-16.65 176 -18.3 176 -20 176 C-20 176.66 -20 177.32 -20 178 C-21.65 178 -23.3 178 -25 178 C-25 178.99 -25 179.98 -25 181 C-25.66 181 -26.32 181 -27 181 C-27 181.66 -27 182.32 -27 183 C-27.99 183 -28.98 183 -30 183 C-30 183.66 -30 184.32 -30 185 C-31.65 185.33 -33.3 185.66 -35 186 C-35 186.66 -35 187.32 -35 188 C-36.32 188 -37.64 188 -39 188 C-39.33 188.99 -39.66 189.98 -40 191 C-41.32 191 -42.64 191 -44 191 C-44 191.66 -44 192.32 -44 193 C-44.99 193 -45.98 193 -47 193 C-47 193.66 -47 194.32 -47 195 C-48.65 195.33 -50.3 195.66 -52 196 C-52 196.66 -52 197.32 -52 198 C-53.65 198 -55.3 198 -57 198 C-57 198.66 -57 199.32 -57 200 C-57.66 200 -58.32 200 -59 200 C-59.33 200.99 -59.66 201.98 -60 203 C-61.32 203 -62.64 203 -64 203 C-64 203.66 -64 204.32 -64 205 C-65.65 205 -67.3 205 -69 205 C-69 205.99 -69 206.98 -69 208 C-72 210 -72 210 -76 210 C-76 210.99 -76 211.98 -76 213 C-76.99 213 -77.98 213 -79 213 C-79 213.66 -79 214.32 -79 215 C-80.65 215 -82.3 215 -84 215 C-84 215.99 -84 216.98 -84 218 C-87 220 -87 220 -91 220 C-91 220.66 -91 221.32 -91 222 C-92.65 222 -94.3 222 -96 222 C-96 222.99 -96 223.98 -96 225 C-97.65 225 -99.3 225 -101 225 C-101 225.66 -101 226.32 -101 227 C-101.66 227 -102.32 227 -103 227 C-103.33 227.99 -103.66 228.98 -104 230 C-105.32 230 -106.64 230 -108 230 C-108 230.66 -108 231.32 -108 232 C-108.99 232 -109.98 232 -111 232 C-111 232.66 -111 233.32 -111 234 C-112.32 234.33 -113.64 234.66 -115 235 C-115 235.66 -115 236.32 -115 237 C-116.65 237 -118.3 237 -120 237 C-120.33 237.99 -120.66 238.98 -121 240 C-122.32 240 -123.64 240 -125 240 C-125 240.66 -125 241.32 -125 242 C-125.99 242 -126.98 242 -128 242 C-128 242.66 -128 243.32 -128 244 C-128.66 244 -129.32 244 -130 244 C-130.33 244.99 -130.66 245.98 -131 247 C-143.01989891 247.5683665 -143.01989891 247.5683665 -147 244 C-147 243.34 -147 242.68 -147 242 C-147.598125 241.855625 -148.19625 241.71125 -148.8125 241.5625 C-150.56150404 241.1127561 -152.28677023 240.57107659 -154 240 C-154.33 239.34 -154.66 238.68 -155 238 C-157.30965848 236.94647157 -159.6429774 235.94280904 -162 235 C-162 234.01 -162 233.02 -162 232 C-163.65 232 -165.3 232 -167 232 C-167 231.34 -167 230.68 -167 230 C-168.65 229.67 -170.3 229.34 -172 229 C-172 228.34 -172 227.68 -172 227 C-172.66 227 -173.32 227 -174 227 C-174 226.34 -174 225.68 -174 225 C-175.65 225 -177.3 225 -179 225 C-179 224.01 -179 223.02 -179 222 C-180.65 222 -182.3 222 -184 222 C-184 221.34 -184 220.68 -184 220 C-184.66 220 -185.32 220 -186 220 C-186 219.34 -186 218.68 -186 218 C-187.65 218 -189.3 218 -191 218 C-191 217.01 -191 216.02 -191 215 C-192.65 215 -194.3 215 -196 215 C-196 214.34 -196 213.68 -196 213 C-196.99 212.67 -197.98 212.34 -199 212 C-199 211.34 -199 210.68 -199 210 C-200.32 210 -201.64 210 -203 210 C-203 209.34 -203 208.68 -203 208 C-204.65 207.67 -206.3 207.34 -208 207 C-208 206.34 -208 205.68 -208 205 C-208.99 205 -209.98 205 -211 205 C-211 204.34 -211 203.68 -211 203 C-212.65 202.67 -214.3 202.34 -216 202 C-216 201.34 -216 200.68 -216 200 C-216.66 200 -217.32 200 -218 200 C-218 199.34 -218 198.68 -218 198 C-219.65 198 -221.3 198 -223 198 C-223 197.34 -223 196.68 -223 196 C-224.65 195.67 -226.3 195.34 -228 195 C-228 194.34 -228 193.68 -228 193 C-229.175625 192.7834375 -229.175625 192.7834375 -230.375 192.5625 C-233 192 -233 192 -235 191 C-235 190.01 -235 189.02 -235 188 C-236.65 188 -238.3 188 -240 188 C-240 187.34 -240 186.68 -240 186 C-241.65 185.67 -243.3 185.34 -245 185 C-245 184.34 -245 183.68 -245 183 C-245.99 183 -246.98 183 -248 183 C-248 182.34 -248 181.68 -248 181 C-249.32 181 -250.64 181 -252 181 C-252 180.01 -252 179.02 -252 178 C-253.1446875 177.7834375 -253.1446875 177.7834375 -254.3125 177.5625 C-257 177 -257 177 -260 176 C-260 175.01 -260 174.02 -260 173 C-261.32 173 -262.64 173 -264 173 C-264 172.34 -264 171.68 -264 171 C-264.99 171 -265.98 171 -267 171 C-267 170.34 -267 169.68 -267 169 C-268.65 169 -270.3 169 -272 169 C-272 168.01 -272 167.02 -272 166 C-273.65 165.67 -275.3 165.34 -277 165 C-277 163.68 -277 162.36 -277 161 C-273.15228268 162.4188485 -269.79738457 164.2141593 -266.30078125 166.3515625 C-265.18703125 167.03001221 -264.07328125 167.70846191 -262.92578125 168.4074707 C-261.72130043 169.14655957 -260.51687475 169.8857383 -259.3125 170.625 C-258.06007806 171.38986553 -256.80747106 172.15442809 -255.5546875 172.91870117 C-246.09653482 178.69401133 -236.66350804 184.51043461 -227.23168945 190.32861328 C-220.05715125 194.7496919 -212.84806856 199.10780459 -205.61083984 203.42529297 C-198.74239379 207.53201398 -191.93244511 211.73061835 -185.125 215.9375 C-174.31593972 222.61359068 -163.43876104 229.16486578 -152.44921875 235.54003906 C-150.72216053 236.56952552 -149.01804407 237.63798381 -147.33203125 238.73339844 C-146.45933594 239.29317383 -145.58664063 239.85294922 -144.6875 240.4296875 C-143.90761719 240.94515137 -143.12773437 241.46061523 -142.32421875 241.99169922 C-139.32030809 243.29486634 -138.0831343 243.05511707 -135 242 C-132.9589203 240.88553267 -130.96293953 239.68668288 -129.00390625 238.43359375 C-127.84551181 237.70119026 -126.68681185 236.96926979 -125.52783203 236.23779297 C-124.94060364 235.86402527 -124.35337524 235.49025757 -123.74835205 235.10516357 C-121.05066036 233.39990599 -118.32020822 231.74994768 -115.58984375 230.09765625 C-114.51162354 229.44337646 -113.43340332 228.78909668 -112.32250977 228.11499023 C-111.20545654 227.43766846 -110.08840332 226.76034668 -108.9375 226.0625 C-107.73166081 225.33085775 -106.52585095 224.59916717 -105.32006836 223.86743164 C-100.91184663 221.19242007 -96.5030978 218.5182777 -92.09436035 215.84411621 C-88.3458116 213.5703511 -84.5974738 211.29623894 -80.84939575 209.021698 C-79.12562864 207.97580326 -77.40156504 206.93039721 -75.67749023 205.88500977 C-69.13575754 201.91539076 -62.61128545 197.91890458 -56.09692383 193.90454102 C-50.54915809 190.49278536 -44.97902771 187.11786549 -39.41088867 183.73950195 C-33.88120966 180.37900462 -28.36854043 176.99333154 -22.875 173.57421875 C-21.685849 172.8358441 -20.49664047 172.09756211 -19.30737305 171.359375 C-17.0109558 169.93396036 -14.71905126 168.50203333 -12.42895508 167.06640625 C-11.38634521 166.41929687 -10.34373535 165.7721875 -9.26953125 165.10546875 C-8.34760986 164.52949951 -7.42568848 163.95353027 -6.47583008 163.36010742 C-4 162 -4 162 0 161 C0 107.87 0 54.74 0 0 Z " fill="#F3F2FD" transform="translate(319,103)"/>
<path d="M0 0 C7.20086651 5.44956882 14.18414913 12.87776267 15.9375 22.05078125 C14.9475 22.05078125 13.9575 22.05078125 12.9375 22.05078125 C12.9375 20.40078125 12.9375 18.75078125 12.9375 17.05078125 C12.2775 17.05078125 11.6175 17.05078125 10.9375 17.05078125 C10.9375 16.06078125 10.9375 15.07078125 10.9375 14.05078125 C9.4525 13.55578125 9.4525 13.55578125 7.9375 13.05078125 C7.31875 12.26703125 6.7 11.48328125 6.0625 10.67578125 C4.08713557 7.92335414 4.08713557 7.92335414 1.1875 6.42578125 C0.445 5.97203125 -0.2975 5.51828125 -1.0625 5.05078125 C-1.0625 4.06078125 -1.0625 3.07078125 -1.0625 2.05078125 C-2.1453125 1.83421875 -2.1453125 1.83421875 -3.25 1.61328125 C-7.15625 0.83203125 -7.15625 0.83203125 -11.0625 0.05078125 C-11.0625 -0.93921875 -11.0625 -1.92921875 -11.0625 -2.94921875 C-19.3125 -2.94921875 -27.5625 -2.94921875 -36.0625 -2.94921875 C-36.0625 -1.95921875 -36.0625 -0.96921875 -36.0625 0.05078125 C-37.7125 0.05078125 -39.3625 0.05078125 -41.0625 0.05078125 C-41.0625 0.71078125 -41.0625 1.37078125 -41.0625 2.05078125 C-42.3825 2.05078125 -43.7025 2.05078125 -45.0625 2.05078125 C-45.3925 3.04078125 -45.7225 4.03078125 -46.0625 5.05078125 C-46.7225 5.05078125 -47.3825 5.05078125 -48.0625 5.05078125 C-48.0625 5.71078125 -48.0625 6.37078125 -48.0625 7.05078125 C-50.4375 9.67578125 -50.4375 9.67578125 -53.0625 12.05078125 C-53.7225 12.05078125 -54.3825 12.05078125 -55.0625 12.05078125 C-55.5575 13.53578125 -55.5575 13.53578125 -56.0625 15.05078125 C-56.7225 15.05078125 -57.3825 15.05078125 -58.0625 15.05078125 C-58.0625 16.37078125 -58.0625 17.69078125 -58.0625 19.05078125 C-58.7225 19.05078125 -59.3825 19.05078125 -60.0625 19.05078125 C-60.0625 20.70078125 -60.0625 22.35078125 -60.0625 24.05078125 C-61.0525 24.05078125 -62.0425 24.05078125 -63.0625 24.05078125 C-63.05089844 24.68886719 -63.03929687 25.32695312 -63.02734375 25.984375 C-63.01832031 26.81066406 -63.00929687 27.63695312 -63 28.48828125 C-62.98839844 29.31199219 -62.97679687 30.13570312 -62.96484375 30.984375 C-63.0625 33.05078125 -63.0625 33.05078125 -64.0625 34.05078125 C-64.1604057 35.54816249 -64.19224864 37.05021017 -64.1875 38.55078125 C-64.19007813 39.36546875 -64.19265625 40.18015625 -64.1953125 41.01953125 C-64.2870178 43.04608502 -64.2870178 43.04608502 -63.0625 44.05078125 C-63.02157063 46.38375558 -63.02008277 48.7178335 -63.0625 51.05078125 C-62.0725 51.38078125 -61.0825 51.71078125 -60.0625 52.05078125 C-60.0625 53.37078125 -60.0625 54.69078125 -60.0625 56.05078125 C-59.4025 56.05078125 -58.7425 56.05078125 -58.0625 56.05078125 C-58.0625 57.04078125 -58.0625 58.03078125 -58.0625 59.05078125 C-57.0725 59.38078125 -56.0825 59.71078125 -55.0625 60.05078125 C-55.0625 60.71078125 -55.0625 61.37078125 -55.0625 62.05078125 C-54.4025 62.05078125 -53.7425 62.05078125 -53.0625 62.05078125 C-53.0625 62.71078125 -53.0625 63.37078125 -53.0625 64.05078125 C-51.4125 64.71078125 -49.7625 65.37078125 -48.0625 66.05078125 C-48.0625 66.71078125 -48.0625 67.37078125 -48.0625 68.05078125 C-47.4025 68.05078125 -46.7425 68.05078125 -46.0625 68.05078125 C-44.8125 74.67578125 -44.8125 74.67578125 -47.0625 78.05078125 C-50.1875 78.23828125 -50.1875 78.23828125 -53.0625 78.05078125 C-53.0625 79.04078125 -53.0625 80.03078125 -53.0625 81.05078125 C-54.7125 81.05078125 -56.3625 81.05078125 -58.0625 81.05078125 C-58.0625 81.71078125 -58.0625 82.37078125 -58.0625 83.05078125 C-59.7125 83.05078125 -61.3625 83.05078125 -63.0625 83.05078125 C-63.0625 84.04078125 -63.0625 85.03078125 -63.0625 86.05078125 C-63.7225 86.05078125 -64.3825 86.05078125 -65.0625 86.05078125 C-65.0625 86.71078125 -65.0625 87.37078125 -65.0625 88.05078125 C-66.7125 88.05078125 -68.3625 88.05078125 -70.0625 88.05078125 C-70.0625 88.71078125 -70.0625 89.37078125 -70.0625 90.05078125 C-70.7225 90.05078125 -71.3825 90.05078125 -72.0625 90.05078125 C-72.0625 91.04078125 -72.0625 92.03078125 -72.0625 93.05078125 C-73.0525 93.05078125 -74.0425 93.05078125 -75.0625 93.05078125 C-75.2790625 94.22640625 -75.2790625 94.22640625 -75.5 95.42578125 C-76.0625 98.05078125 -76.0625 98.05078125 -77.0625 100.05078125 C-78.0525 100.05078125 -79.0425 100.05078125 -80.0625 100.05078125 C-80.0625 101.04078125 -80.0625 102.03078125 -80.0625 103.05078125 C-80.7225 103.05078125 -81.3825 103.05078125 -82.0625 103.05078125 C-82.0625 103.71078125 -82.0625 104.37078125 -82.0625 105.05078125 C-83.0525 105.05078125 -84.0425 105.05078125 -85.0625 105.05078125 C-85.0625 106.70078125 -85.0625 108.35078125 -85.0625 110.05078125 C-85.7225 110.05078125 -86.3825 110.05078125 -87.0625 110.05078125 C-87.206875 110.69015625 -87.35125 111.32953125 -87.5 111.98828125 C-88.0625 114.05078125 -88.0625 114.05078125 -89.0625 115.05078125 C-89.43010731 117.37896089 -89.76491581 119.71261975 -90.0625 122.05078125 C-90.7225 122.05078125 -91.3825 122.05078125 -92.0625 122.05078125 C-92.0625 128.65078125 -92.0625 135.25078125 -92.0625 142.05078125 C-91.4025 142.05078125 -90.7425 142.05078125 -90.0625 142.05078125 C-90.0625 142.71078125 -90.0625 143.37078125 -90.0625 144.05078125 C-89.258125 144.23640625 -89.258125 144.23640625 -88.4375 144.42578125 C-85.5986714 145.17284141 -82.84026798 146.10381489 -80.0625 147.05078125 C-80.0625 147.71078125 -80.0625 148.37078125 -80.0625 149.05078125 C-79.0725 149.05078125 -78.0825 149.05078125 -77.0625 149.05078125 C-77.0625 150.04078125 -77.0625 151.03078125 -77.0625 152.05078125 C-81.20282846 150.50692996 -84.99803053 148.54049187 -88.875 146.42578125 C-89.47248047 146.1009375 -90.06996094 145.77609375 -90.68554688 145.44140625 C-92.14587135 144.64698974 -93.60437491 143.84922749 -95.0625 143.05078125 C-95.64604455 122.38898162 -92.52267505 106.84046443 -78.56640625 90.6171875 C-70.80541078 82.66246983 -61.54766933 76.76427872 -51.0625 73.05078125 C-49.7425 73.05078125 -48.4225 73.05078125 -47.0625 73.05078125 C-47.0625 72.39078125 -47.0625 71.73078125 -47.0625 71.05078125 C-47.805 70.79425781 -48.5475 70.53773438 -49.3125 70.2734375 C-56.74204296 66.97024582 -62.052677 59.423681 -65.0625 52.05078125 C-68.48381649 40.49325982 -69.03111853 27.65185927 -63.6015625 16.65625 C-57.7084629 6.67986058 -49.27269786 -2.39517139 -38.078125 -6.3203125 C-24.80104489 -9.08923724 -11.52483566 -7.33532269 0 0 Z " fill="#F2F1FC" transform="translate(205.0625,114.94921875)"/>
<path d="M0 0 C9.39798888 5.32776224 18.72918161 10.75904646 28.01391602 16.28173828 C30.06363868 17.50067716 32.11475129 18.71725142 34.16601562 19.93359375 C41.47006412 24.27020323 48.73049087 28.66736937 55.95629883 33.13330078 C60.70567909 36.04609147 65.5069973 38.86859143 70.3125 41.6875 C72.16335328 42.77373001 74.01362397 43.8609534 75.86328125 44.94921875 C77.17159912 45.71758057 77.17159912 45.71758057 78.50634766 46.50146484 C81.43835161 48.26342296 84.29917629 50.12161343 87.13745117 52.03051758 C89.41066698 53.32374656 89.41066698 53.32374656 94 54 C94 49.71 94 45.42 94 41 C94.33 41 94.66 41 95 41 C95.05607422 42.34191406 95.05607422 42.34191406 95.11328125 43.7109375 C95.52453809 51.27483773 96.5385336 57.85639643 99 65 C99.34729274 66.32976563 99.68521554 67.66216607 100 69 C96.66216131 66.77477421 96.62252107 66.33718691 95.5 62.75 C93.27163636 57.51999727 90.28271807 56.04260845 85.29296875 53.63671875 C81.54614864 51.77442026 78.08485661 49.62465317 74.5625 47.375 C65.89465603 41.89363253 57.10258565 36.6286402 48.296875 31.37255859 C46.31036141 30.18546469 44.3261276 28.99476372 42.34375 27.80078125 C36.3150505 24.17111698 30.27221957 20.56724184 24.2109375 16.9921875 C22.98313708 16.26728176 21.75535404 15.5423466 20.52758789 14.81738281 C18.08300631 13.37398507 15.63659584 11.93375198 13.18920898 10.49511719 C12.06071533 9.82899414 10.93222168 9.16287109 9.76953125 8.4765625 C8.75479736 7.87924316 7.74006348 7.28192383 6.69458008 6.66650391 C4.33940207 5.20990835 2.10112156 3.80417973 0 2 C0 1.34 0 0.68 0 0 Z " fill="#6D62EA" transform="translate(43,104)"/>
<path d="M0 0 C2.97 0.495 2.97 0.495 6 1 C6 1.99 6 2.98 6 4 C5.01 4 4.02 4 3 4 C2.67 30.4 2.34 56.8 2 84 C3.65 84 5.3 84 7 84 C7 84.33 7 84.66 7 85 C4.69 85 2.38 85 0 85 C0 56.95 0 28.9 0 0 Z " fill="#2814CB" transform="translate(181,22)"/>
<path d="M0 0 C16.40054232 3.80986049 28.93108441 13.97403907 38.125 27.8125 C40.50680887 31.81115723 42.08831968 35.44159838 43 40 C42.01 39.505 42.01 39.505 41 39 C41 38.34 41 37.68 41 37 C40.34 37 39.68 37 39 37 C39 35.35 39 33.7 39 32 C38.01 32 37.02 32 36 32 C34 29 34 29 34 25 C33.01 24.67 32.02 24.34 31 24 C31 23.34 31 22.68 31 22 C30.34 22 29.68 22 29 22 C29 21.34 29 20.68 29 20 C28.34 20 27.68 20 27 20 C27 19.01 27 18.02 27 17 C26.01 17 25.02 17 24 17 C24 16.34 24 15.68 24 15 C23.21625 14.855625 22.4325 14.71125 21.625 14.5625 C19 14 19 14 17 13 C17 12.01 17 11.02 17 10 C15.35 10 13.7 10 12 10 C12 9.34 12 8.68 12 8 C10.35 8 8.7 8 7 8 C7 7.01 7 6.02 7 5 C5.35 5 3.7 5 2 5 C2 4.34 2 3.68 2 3 C1.34 3 0.68 3 0 3 C0 2.01 0 1.02 0 0 Z " fill="#F4F3FC" transform="translate(204,188)"/>
<path d="M0 0 C5 2 5 2 6 4 C5.34 4 4.68 4 4 4 C4.33 5.32 4.66 6.64 5 8 C4.01 7.67 3.02 7.34 2 7 C2.00523682 7.75466553 2.01047363 8.50933105 2.01586914 9.28686523 C2.15490967 32.87271552 1.66470216 56.42428735 1 80 C0.67 80 0.34 80 0 80 C0 53.6 0 27.2 0 0 Z " fill="#1101C9" transform="translate(42,106)"/>
<path d="M0 0 C3.76654475 0.66567319 6.50665263 2.36375932 9.7421875 4.359375 C10.57706192 4.87075012 10.57706192 4.87075012 11.42880249 5.39245605 C12.62501724 6.1258049 13.81980914 6.86147877 15.01330566 7.59924316 C18.16143286 9.54517425 21.31964206 11.4746298 24.4765625 13.40625 C25.11178833 13.79556702 25.74701416 14.18488403 26.40148926 14.58599854 C33.18481011 18.7379672 40.03283783 22.77811215 46.89404297 26.79980469 C51.98166183 29.78690264 57.01627758 32.84237435 62 36 C61.01 36.495 61.01 36.495 60 37 C57.62631257 35.85034199 55.3970796 34.64141096 53.125 33.3125 C52.41738525 32.90604248 51.70977051 32.49958496 50.98071289 32.08081055 C42.85502455 27.38806464 34.81442518 22.55032128 26.79003906 17.68701172 C23.74749272 15.84732015 20.69810226 14.01927086 17.6484375 12.19140625 C15.53626739 10.9195879 13.42428467 9.64745826 11.3125 8.375 C10.30179443 7.77083252 9.29108887 7.16666504 8.24975586 6.54418945 C6.85188843 5.69860474 6.85188843 5.69860474 5.42578125 4.8359375 C4.59473877 4.33626465 3.76369629 3.8365918 2.9074707 3.32177734 C1 2 1 2 0 0 Z " fill="#453DE3" transform="translate(251,222)"/>
<path d="M0 0 C0.66 0.33 1.32 0.66 2 1 C1.66226563 1.68964844 1.32453125 2.37929687 0.9765625 3.08984375 C-4.72331016 15.09911302 -5.46231838 25.8833983 -6 39 C-6.33 39 -6.66 39 -7 39 C-7.17348288 34.24961931 -7.30026048 29.50109326 -7.38452148 24.74829102 C-7.4196529 23.13305538 -7.46737171 21.51804126 -7.52807617 19.90356445 C-7.61333995 17.57708139 -7.65275382 15.25354526 -7.68359375 12.92578125 C-7.71972275 12.20787918 -7.75585175 11.48997711 -7.79307556 10.75032043 C-7.79467773 8.6887207 -7.79467773 8.6887207 -7 5 C-4.81526674 2.81800851 -2.70744553 1.56986337 0 0 Z " fill="#7A79F1" transform="translate(116,218)"/>
<path d="M0 0 C1.65 0 3.3 0 5 0 C5 0.66 5 1.32 5 2 C6.65 2.33 8.3 2.66 10 3 C10 3.66 10 4.32 10 5 C12.31 5.66 14.62 6.32 17 7 C17 7.66 17 8.32 17 9 C19.475 9.495 19.475 9.495 22 10 C22 10.66 22 11.32 22 12 C22.66 12 23.32 12 24 12 C24 12.66 24 13.32 24 14 C25.65 14 27.3 14 29 14 C29 14.99 29 15.98 29 17 C30.65 17 32.3 17 34 17 C34 17.66 34 18.32 34 19 C34.99 19 35.98 19 37 19 C37 19.99 37 20.98 37 22 C32.99369998 20.5240435 29.45412552 18.61650032 25.78125 16.4453125 C25.20088989 16.10249237 24.62052979 15.75967224 24.02258301 15.40646362 C22.8012839 14.68370632 21.58104441 13.95915579 20.36181641 13.23291016 C18.5087504 12.1302071 16.65114818 11.03546532 14.79296875 9.94140625 C13.6012805 9.23485041 12.40986507 8.52783419 11.21875 7.8203125 C9.6090332 6.86535889 9.6090332 6.86535889 7.96679688 5.89111328 C5.1396625 4.0890245 2.57248532 2.14591918 0 0 Z " fill="#E8E6FA" transform="translate(238,54)"/>
<path d="M0 0 C3.34373475 0.55728913 6.03312999 1.35173889 9 3 C9 3.66 9 4.32 9 5 C9.99 5 10.98 5 12 5 C12 5.66 12 6.32 12 7 C13.65 7 15.3 7 17 7 C17 7.66 17 8.32 17 9 C17.78375 9.309375 18.5675 9.61875 19.375 9.9375 C22 11 22 11 24 12 C24 12.66 24 13.32 24 14 C25.65 14 27.3 14 29 14 C29 14.99 29 15.98 29 17 C29.66 17 30.32 17 31 17 C31 17.66 31 18.32 31 19 C27.56898679 17.70706652 24.48528985 16.21380787 21.34765625 14.3203125 C20.05891602 13.54494141 20.05891602 13.54494141 18.74414062 12.75390625 C17.85919922 12.21636719 16.97425781 11.67882812 16.0625 11.125 C14.74088867 10.33029297 14.74088867 10.33029297 13.39257812 9.51953125 C4.14522031 3.93648226 4.14522031 3.93648226 0 1 C0 0.67 0 0.34 0 0 Z " fill="#EAE9FA" transform="translate(275,76)"/>
<path d="M0 0 C4.03660668 1.91113679 7.39969605 4.36900865 11 7 C10.01 10.96 9.02 14.92 8 19 C7.34 18.67 6.68 18.34 6 18 C5.5078125 16.25 5.5078125 16.25 5.125 14 C4.12306508 8.96608505 2.23898078 4.59751879 0 0 Z " fill="#8482F7" transform="translate(242,217)"/>
<path d="M0 0 C0 3.75636213 -1.17902942 5.57094094 -2.95703125 8.875 C-3.57513672 10.02484375 -4.19324219 11.1746875 -4.83007812 12.359375 C-5.15564697 12.95685547 -5.48121582 13.55433594 -5.81665039 14.16992188 C-6.80646268 15.98890518 -7.78375485 17.81420666 -8.75976562 19.640625 C-14.03900067 29.40037145 -14.03900067 29.40037145 -17 32 C-16.42575308 28.29861738 -15.4234463 25.62849246 -13.49609375 22.42578125 C-13.00302734 21.59369141 -12.50996094 20.76160156 -12.00195312 19.90429688 C-11.48568359 19.04900391 -10.96941406 18.19371094 -10.4375 17.3125 C-9.41153235 15.60255392 -8.38920148 13.89041878 -7.37109375 12.17578125 C-6.91661865 11.42208252 -6.46214355 10.66838379 -5.99389648 9.8918457 C-4.84497253 8.06108305 -4.84497253 8.06108305 -5 6 C-6.32 6.33 -7.64 6.66 -9 7 C-6.24479785 4.04070881 -3.53372712 1.96318174 0 0 Z " fill="#210CCA" transform="translate(318,104)"/>
<path d="M0 0 C1.65 0 3.3 0 5 0 C5 0.66 5 1.32 5 2 C7.31 2.66 9.62 3.32 12 4 C12 4.99 12 5.98 12 7 C13.65 7 15.3 7 17 7 C17 7.66 17 8.32 17 9 C17.78375 9.309375 18.5675 9.61875 19.375 9.9375 C22 11 22 11 24 12 C24 12.66 24 13.32 24 14 C18.91720031 12.54214273 14.78181179 10.29890356 10.3125 7.5625 C9.64927734 7.16740234 8.98605469 6.77230469 8.30273438 6.36523438 C5.16591247 4.46671477 2.5342455 2.67815495 0 0 Z " fill="#ECEBFB" transform="translate(145,277)"/>
<path d="M0 0 C1.65 0 3.3 0 5 0 C5 0.66 5 1.32 5 2 C6.65 2.33 8.3 2.66 10 3 C10 3.66 10 4.32 10 5 C10.99 5 11.98 5 13 5 C13 5.66 13 6.32 13 7 C14.65 7.33 16.3 7.66 18 8 C18 8.66 18 9.32 18 10 C19.32 10 20.64 10 22 10 C22 10.66 22 11.32 22 12 C22.99 12 23.98 12 25 12 C24.67 12.99 24.34 13.98 24 15 C20.57928301 13.02922123 17.16139141 11.05364261 13.74609375 9.07348633 C12.58280683 8.3999445 11.41874382 7.7277413 10.25390625 7.05688477 C8.58392239 6.09479797 6.91690985 5.12755929 5.25 4.16015625 C4.24453125 3.57886963 3.2390625 2.99758301 2.203125 2.39868164 C1.47609375 1.9371167 0.7490625 1.47555176 0 1 C0 0.67 0 0.34 0 0 Z " fill="#EAE8F9" transform="translate(213,39)"/>
<path d="M0 0 C1.65 0.99 3.3 1.98 5 3 C4.01 3.495 4.01 3.495 3 4 C3.33 5.32 3.66 6.64 4 8 C3.01 7.67 2.02 7.34 1 7 C1 17.56 1 28.12 1 39 C0.67 39 0.34 39 0 39 C0 26.13 0 13.26 0 0 Z " fill="#2911CE" transform="translate(43,106)"/>
<path d="M0 0 C5.76557352 2.1970137 8.17972825 7.8283178 11 13 C11.93107965 15.3744564 12.4984066 17.492033 13 20 C12.34 19.67 11.68 19.34 11 19 C11 18.34 11 17.68 11 17 C10.34 17 9.68 17 9 17 C9 15.35 9 13.7 9 12 C8.01 12 7.02 12 6 12 C4 9 4 9 4 5 C3.01 4.67 2.02 4.34 1 4 C1 3.34 1 2.68 1 2 C0.34 1.67 -0.32 1.34 -1 1 C-0.67 0.67 -0.34 0.34 0 0 Z " fill="#ECEBFB" transform="translate(234,208)"/>
<path d="M0 0 C4.21815144 1.50873956 7.86711474 3.66448874 11.625 6.0625 C16.10772343 8.92816537 16.10772343 8.92816537 21 11 C21 11.66 21 12.32 21 13 C16.46051448 12.02594801 12.82938377 9.88159604 8.8125 7.625 C7.70745117 7.02558594 7.70745117 7.02558594 6.58007812 6.4140625 C5.87947266 6.0221875 5.17886719 5.6303125 4.45703125 5.2265625 C3.81741455 4.87158691 3.17779785 4.51661133 2.51879883 4.15087891 C1 3 1 3 0 0 Z " fill="#422ECD" transform="translate(159,333)"/>
<path d="M0 0 C0.99 0.33 1.98 0.66 3 1 C2.34 1.66 1.68 2.32 1 3 C1.33 3.66 1.66 4.32 2 5 C0.421924 5.84324672 -1.1627042 6.67423918 -2.75 7.5 C-4.07257813 8.19609375 -4.07257813 8.19609375 -5.421875 8.90625 C-8 10 -8 10 -12 10 C-11.67 9.01 -11.34 8.02 -11 7 C-9.68 7 -8.36 7 -7 7 C-7 6.34 -7 5.68 -7 5 C-5.35 5 -3.7 5 -2 5 C-1.34 3.35 -0.68 1.7 0 0 Z " fill="#7E6FE3" transform="translate(71,83)"/>
<path d="M0 0 C3.02419525 0.58803797 6.01758453 1.22678118 9 2 C9 2.99 9 3.98 9 5 C10.65 5 12.3 5 14 5 C14 5.66 14 6.32 14 7 C14.66 7 15.32 7 16 7 C15.67 7.99 15.34 8.98 15 10 C12.49732313 8.52520827 9.99783579 7.04544936 7.5 5.5625 C6.78457031 5.14162109 6.06914062 4.72074219 5.33203125 4.28710938 C3.53787459 3.21915898 1.76678262 2.11265239 0 1 C0 0.67 0 0.34 0 0 Z " fill="#EDEBF9" transform="translate(185,22)"/>
<path d="M0 0 C0.33 0 0.66 0 1 0 C1.06058594 0.92683594 1.12117187 1.85367188 1.18359375 2.80859375 C1.26738281 4.00613281 1.35117188 5.20367187 1.4375 6.4375 C1.51871094 7.63246094 1.59992188 8.82742187 1.68359375 10.05859375 C1.67656114 12.88570244 1.67656114 12.88570244 3 14 C3.04080783 15.99958364 3.04254356 18.00045254 3 20 C2.34 20 1.68 20 1 20 C-0.1482685 17.703463 -0.11561175 16.41686833 -0.09765625 13.8671875 C-0.09443359 13.06152344 -0.09121094 12.25585938 -0.08789062 11.42578125 C-0.07951172 10.58402344 -0.07113281 9.74226562 -0.0625 8.875 C-0.05798828 8.02550781 -0.05347656 7.17601562 -0.04882812 6.30078125 C-0.03702874 4.20049091 -0.01909306 2.1002367 0 0 Z " fill="#FAFAFD" transform="translate(139,145)"/>
<path d="M0 0 C1.45880109 0.14107747 2.91703551 0.28802415 4.375 0.4375 C5.59316406 0.55931641 5.59316406 0.55931641 6.8359375 0.68359375 C9 1 9 1 11 2 C11 3.32 11 4.64 11 6 C10.01 6 9.02 6 8 6 C8 5.01 8 4.02 8 3 C5.36 3 2.72 3 0 3 C0 2.01 0 1.02 0 0 Z " fill="#FAF9FD" transform="translate(186,109)"/>
<path d="M0 0 C0 3.19610552 -0.54671542 4.41717626 -2 7.1875 C-2.37125 7.90292969 -2.7425 8.61835937 -3.125 9.35546875 C-3.41375 9.89816406 -3.7025 10.44085938 -4 11 C-5 8 -5 8 -5 6 C-6.32 6.33 -7.64 6.66 -9 7 C-6.24479785 4.04070881 -3.53372712 1.96318174 0 0 Z " fill="#2814C6" transform="translate(318,104)"/>
<path d="M0 0 C1.65 0 3.3 0 5 0 C5 0.99 5 1.98 5 3 C6.65 3 8.3 3 10 3 C10 3.66 10 4.32 10 5 C10.99 5 11.98 5 13 5 C13 5.99 13 6.98 13 8 C8.27626146 6.37621488 4.05818166 3.89006982 0 1 C0 0.67 0 0.34 0 0 Z " fill="#E5E3FA" transform="translate(306,95)"/>
<path d="M0 0 C0.33 0.99 0.66 1.98 1 3 C2.99117408 3.69258229 4.9921136 4.35747635 7 5 C8.875 6.625 8.875 6.625 10 8 C5.02125936 7.52583422 1.93281242 6.0900669 -2 3 C-2 2.34 -2 1.68 -2 1 C-1.34 0.67 -0.68 0.34 0 0 Z " fill="#4A39D3" transform="translate(146,323)"/>
<path d="M0 0 C1.65 0 3.3 0 5 0 C5 0.66 5 1.32 5 2 C6.32 2 7.64 2 9 2 C9 2.99 9 3.98 9 5 C9.99 5 10.98 5 12 5 C12 5.66 12 6.32 12 7 C7.69235185 5.43358249 3.93828536 3.31663844 0 1 C0 0.67 0 0.34 0 0 Z " fill="#EEEDFA" transform="translate(128,267)"/>
<path d="M0 0 C0.33 0 0.66 0 1 0 C1 1.98 1 3.96 1 6 C0.34 6 -0.32 6 -1 6 C-0.67 6.99 -0.34 7.98 0 9 C-1.98 9.99 -3.96 10.98 -6 12 C-5.67 11.01 -5.34 10.02 -5 9 C-4.34 9 -3.68 9 -3 9 C-3 7.68 -3 6.36 -3 5 C-2.34 5 -1.68 5 -1 5 C-0.67 3.35 -0.34 1.7 0 0 Z " fill="#9F97EB" transform="translate(219,166)"/>
<path d="M0 0 C0.33 0 0.66 0 1 0 C1.33 4.62 1.66 9.24 2 14 C1.01 14 0.02 14 -1 14 C-1.33 14.66 -1.66 15.32 -2 16 C-2 13.69 -2 11.38 -2 9 C-1.34 9 -0.68 9 0 9 C0 6.03 0 3.06 0 0 Z " fill="#897BE5" transform="translate(223,148)"/>
<path d="M0 0 C1.32 0 2.64 0 4 0 C4 0.66 4 1.32 4 2 C5.65 2 7.3 2 9 2 C9.66 3.65 10.32 5.3 11 7 C9.35063087 6.21572648 7.70558873 5.42234741 6.0625 4.625 C5.14597656 4.18414062 4.22945312 3.74328125 3.28515625 3.2890625 C1 2 1 2 0 0 Z " fill="#E9E6F8" transform="translate(202,32)"/>
<path d="M0 0 C1.32 0.33 2.64 0.66 4 1 C1.42215154 3.64752004 -0.91648098 5.94432065 -4 8 C-4.99 7.67 -5.98 7.34 -7 7 C-7 6.34 -7 5.68 -7 5 C-6.21625 4.731875 -5.4325 4.46375 -4.625 4.1875 C-1.71885077 3.15185568 -1.71885077 3.15185568 0 0 Z " fill="#9E94ED" transform="translate(152,34)"/>
<path d="M0 0 C0.66 0.33 1.32 0.66 2 1 C-1.222107 4.8665284 -4.14922412 5.88059018 -9 7 C-9 6.34 -9 5.68 -9 5 C-7.68 5 -6.36 5 -5 5 C-4.67 4.01 -4.34 3.02 -4 2 C-2.0625 0.75 -2.0625 0.75 0 0 Z " fill="#A5A4F9" transform="translate(240,262)"/>
<path d="M0 0 C0.66 0.33 1.32 0.66 2 1 C-0.25 3.5 -0.25 3.5 -3 6 C-4.32 6 -5.64 6 -7 6 C-7 5.34 -7 4.68 -7 4 C-1.7265625 0.77734375 -1.7265625 0.77734375 0 0 Z " fill="#2815C6" transform="translate(49,258)"/>
<path d="M0 0 C0.33 0.66 0.66 1.32 1 2 C-1.64 3.98 -4.28 5.96 -7 8 C-7 5 -7 5 -6 3 C-5.01 3 -4.02 3 -3 3 C-3 2.34 -3 1.68 -3 1 C-2.01 0.67 -1.02 0.34 0 0 Z " fill="#E5E2F9" transform="translate(212,178)"/>
<path d="M0 0 C1.17539996 0.92652701 2.34010577 1.86663387 3.5 2.8125 C4.1496875 3.33457031 4.799375 3.85664063 5.46875 4.39453125 C7 6 7 6 7 9 C5.82460004 8.07347299 4.65989423 7.13336613 3.5 6.1875 C2.52546875 5.40439453 2.52546875 5.40439453 1.53125 4.60546875 C0 3 0 3 0 0 Z " fill="#685FE6" transform="translate(145,176)"/>
<path d="M0 0 C0.33 0.66 0.66 1.32 1 2 C-0.28650706 2.69710731 -1.57940665 3.38242876 -2.875 4.0625 C-3.95394531 4.63677734 -3.95394531 4.63677734 -5.0546875 5.22265625 C-5.69664063 5.47917969 -6.33859375 5.73570313 -7 6 C-7.66 5.67 -8.32 5.34 -9 5 C-3.85714286 0.57142857 -3.85714286 0.57142857 0 0 Z " fill="#331AD1" transform="translate(80,81)"/>
<path d="M0 0 C0 0.66 0 1.32 0 2 C-3.37097383 3.49821059 -5.20442119 4 -9 4 C-8.67 3.01 -8.34 2.02 -8 1 C-5.23735711 0.40267181 -2.83967231 0 0 0 Z " fill="#6552DB" transform="translate(68,89)"/>
<path d="M0 0 C-0.66 1.32 -1.32 2.64 -2 4 C-3.65 4 -5.3 4 -7 4 C-7 3.34 -7 2.68 -7 2 C-4 0 -4 0 0 0 Z " fill="#6C5DDC" transform="translate(96,71)"/>
<path d="M0 0 C1.65 0 3.3 0 5 0 C5 0.66 5 1.32 5 2 C6.32 2.33 7.64 2.66 9 3 C6.75 3.75 6.75 3.75 4 4 C1.6875 2.0625 1.6875 2.0625 0 0 Z " fill="#E8E7FA" transform="translate(174,294)"/>
<path d="M0 0 C1.32 0.33 2.64 0.66 4 1 C3.01 1.33 2.02 1.66 1 2 C0.67 2.99 0.34 3.98 0 5 C-1.32 4.67 -2.64 4.34 -4 4 C-3.67 3.34 -3.34 2.68 -3 2 C-2.01 2 -1.02 2 0 2 C0 1.34 0 0.68 0 0 Z " fill="#867BEB" transform="translate(165,27)"/>
<path d="M0 0 C0.33 0 0.66 0 1 0 C1 2.31 1 4.62 1 7 C0.01 7 -0.98 7 -2 7 C-2.125 4.625 -2.125 4.625 -2 2 C-1.34 1.34 -0.68 0.68 0 0 Z " fill="#FCFCFE" transform="translate(114,230)"/>
<path d="M0 0 C2 1 2 1 2.8515625 3.28515625 C3.10679687 4.20167969 3.36203125 5.11820313 3.625 6.0625 C3.88539063 6.98160156 4.14578125 7.90070313 4.4140625 8.84765625 C4.60742188 9.55792969 4.80078125 10.26820313 5 11 C1.79851787 8.86567858 1.47793261 8.31580104 0.3125 4.875 C0.06113281 4.15054688 -0.19023437 3.42609375 -0.44921875 2.6796875 C-0.63097656 2.12539062 -0.81273437 1.57109375 -1 1 C-0.67 0.67 -0.34 0.34 0 0 Z " fill="#655EE2" transform="translate(138,162)"/>
<path d="M0 0 C0.66 0 1.32 0 2 0 C5 5.75 5 5.75 5 8 C4.01 8 3.02 8 2 8 C2 6.35 2 4.7 2 3 C1.34 3 0.68 3 0 3 C0 2.01 0 1.02 0 0 Z " fill="#E1DEF7" transform="translate(216,129)"/>
<path d="M0 0 C1.32 0.33 2.64 0.66 4 1 C0.55930376 3.29379749 -0.72290301 4 -5 4 C-5 3.34 -5 2.68 -5 2 C-3.35 2 -1.7 2 0 2 C0 1.34 0 0.68 0 0 Z " fill="#9890ED" transform="translate(174,22)"/>
<path d="M0 0 C-0.33 0.99 -0.66 1.98 -1 3 C-3.31 3.33 -5.62 3.66 -8 4 C-8 3.34 -8 2.68 -8 2 C-4.91190305 0.23537317 -3.76687864 0 0 0 Z " fill="#B3B2FB" transform="translate(226,272)"/>
</svg>
